<svg xmlns="http://www.w3.org/2000/svg" width="472.391" height="458.259" viewBox="0 0 472.391 458.259"><g transform="translate(-245.58 -37.601)"><g transform="translate(320.655 116.879)"><path d="M463.894,376.58,299.258,281.528c-4.658-2.689-4.074-7.385,1.3-10.49l112.1-64.7c5.378-3.105,13.513-3.442,18.17-.753l164.637,95.052c4.656,2.689,4.072,7.385-1.306,10.49l-112.1,64.7C476.685,378.932,468.551,379.269,463.894,376.58Z" transform="translate(-296.113 -36.18)" fill="#c4d9e8" opacity="0.5"/><path d="M588.433,187.034,423.8,91.982a6.64,6.64,0,0,0-5.579-.683l.01-.018-.3.113c-.024.01-.049.018-.073.028l-5.95,2.276,5.339,2.615c-.024.1-.054.19-.076.291L390.354,218.67c-1.343,6.109,1.345,13.242,6,15.931l160.677,92.766-.573,6.809,6.5-2.52c2.185-1.022,3.934-3.332,4.657-6.623l26.816-122.067C595.777,196.856,593.09,189.723,588.433,187.034Z" transform="translate(-250.513 -90.964)" fill="#173d7a"/><path d="M585.332,187.034,420.694,91.982a6.64,6.64,0,0,0-5.579-.683l.01-.018-.3.113c-.024.01-.049.018-.073.028L408.8,93.7l5.339,2.615c-.024.1-.054.19-.076.291l-17.673,80.448,80.554,62.76,113.583-46.217A12.787,12.787,0,0,0,585.332,187.034Z" transform="translate(-247.411 -90.964)" fill="#396caa"/><path d="M523.438,174.106l12.533-5.335c.23-4.854-1.78-9.869-5.078-12.551l-19.838,8.346Z" transform="translate(-191.726 -59.272)" fill="#274f89"/><path d="M554.091,332.778,389.455,237.726c-4.656-2.689-7.345-9.822-6-15.931L410.269,99.728c1.341-6.109,6.206-8.881,10.863-6.192l164.636,95.052c4.658,2.689,7.345,9.822,6,15.931L564.954,326.586C563.612,332.7,558.748,335.467,554.091,332.778Z" transform="translate(-253.864 -90.213)" fill="#d4ecff"/><path d="M548.31,320.771,393.473,231.419c-4.262-2.46-6.721-8.987-5.494-14.576l24.54-111.7c1.229-5.591,5.678-8.128,9.94-5.666L577.3,188.826c4.262,2.462,6.721,8.988,5.494,14.577L558.25,315.1C557.023,320.7,552.572,323.232,548.31,320.771Z" transform="translate(-251.652 -87.287)" fill="#fff"/><path d="M548.31,320.771,393.473,231.419c-4.262-2.46-6.721-8.987-5.494-14.576l24.54-111.7c1.229-5.591,5.678-8.128,9.94-5.666L577.3,188.826c4.262,2.462,6.721,8.988,5.494,14.577L558.25,315.1C557.023,320.7,552.572,323.232,548.31,320.771Z" transform="translate(-251.652 -87.287)" fill="#fff"/><path d="M598.611,286l-22.5-2.971L430.834,199.159c-4.656-2.689-12.792-2.352-18.17.753l-102.94,59.41-13.607-1.8v7.721h.013c-.089,1.784.927,3.5,3.124,4.769l164.636,95.054c4.658,2.688,12.792,2.352,18.17-.753l112.1-64.7c3.026-1.746,4.534-4,4.445-6.111h0Z" transform="translate(-296.111 -39.3)" fill="#173d7a"/><path d="M489.46,223.3l-10.322-5.959H365.666l-55.941,32.276-13.607-1.8v7.721h.013c-.089,1.784.927,3.5,3.124,4.769l164.636,95.054a17.033,17.033,0,0,0,9.378,1.756Z" transform="translate(-296.111 -29.59)" fill="#396caa"/><path d="M302.157,238.649l-6.039-.8v7.721h.013c-.089,1.784.927,3.5,3.124,4.769l2.9,1.676Z" transform="translate(-296.111 -19.626)" fill="#5793ce"/><path d="M410.163,316.7c4.414,1.674,10.725,1.309,15.439-.958V298.523H410.163Z" transform="translate(-240.725 9.839)" fill="#274f89"/><path d="M463.894,361.542,299.258,266.49c-4.658-2.689-4.074-7.385,1.3-10.49l112.1-64.7c5.378-3.105,13.513-3.442,18.17-.753L595.474,285.6c4.656,2.689,4.072,7.385-1.306,10.49l-112.1,64.7C476.685,363.894,468.551,364.231,463.894,361.542Z" transform="translate(-296.113 -43.483)" fill="#d4ecff"/><path d="M594.165,269.8l-112.1,64.7c-5.378,3.105-13.512,3.442-18.17.755L299.255,240.207a6.125,6.125,0,0,1-2.9-3.167c-.728,2.2.2,4.432,2.9,5.987l164.636,95.052c4.658,2.691,12.792,2.352,18.17-.752l112.1-64.7c3.615-2.086,5.053-4.891,4.2-7.323A8.747,8.747,0,0,1,594.165,269.8Z" transform="translate(-296.11 -20.021)" fill="#fff"/><g transform="translate(65.313 151.1)"><path d="M347.929,223.5l-7.449-4.3c-.6-.345-.523-.948.168-1.348l8.792-5.075a2.591,2.591,0,0,1,2.333-.1l7.449,4.3c.6.346.524.949-.166,1.347l-8.794,5.077A2.6,2.6,0,0,1,347.929,223.5Z" transform="translate(-340.076 -183.063)" fill="#173d7a"/><path d="M355.672,227.974l-7.449-4.3c-.6-.346-.523-.949.168-1.347l8.792-5.076a2.6,2.6,0,0,1,2.334-.1l7.449,4.3c.6.345.523.948-.168,1.348l-8.792,5.075A2.594,2.594,0,0,1,355.672,227.974Z" transform="translate(-336.316 -180.892)" fill="#173d7a"/><path d="M363.415,232.444l-7.449-4.3c-.6-.345-.523-.948.168-1.348l8.792-5.075a2.594,2.594,0,0,1,2.334-.1l7.449,4.3c.6.346.523.949-.168,1.348l-8.792,5.076A2.594,2.594,0,0,1,363.415,232.444Z" transform="translate(-332.555 -178.721)" fill="#173d7a"/><path d="M374.124,228.485l-7.449-4.3c-.6-.345-.523-.948.168-1.348l7.381-4.261a2.6,2.6,0,0,1,2.334-.1l7.449,4.3c.6.345.523.948-.168,1.347l-7.381,4.261A2.594,2.594,0,0,1,374.124,228.485Z" transform="translate(-327.354 -180.248)" fill="#173d7a"/><path d="M381.867,232.956l-7.449-4.3c-.6-.346-.523-.949.168-1.347l7.381-4.261a2.589,2.589,0,0,1,2.334-.1l7.449,4.3c.6.345.523.948-.168,1.346L384.2,232.86A2.6,2.6,0,0,1,381.867,232.956Z" transform="translate(-323.594 -178.077)" fill="#173d7a"/><path d="M389.611,237.426l-7.449-4.3c-.6-.345-.523-.948.166-1.346l7.381-4.262a2.6,2.6,0,0,1,2.334-.1l7.449,4.3c.6.345.523.948-.168,1.347l-7.381,4.261A2.591,2.591,0,0,1,389.611,237.426Z" transform="translate(-319.833 -175.905)" fill="#173d7a"/><path d="M397.354,241.9l-7.449-4.3c-.6-.346-.523-.949.168-1.347l7.381-4.261a2.586,2.586,0,0,1,2.332-.1l7.449,4.3c.6.345.523.948-.166,1.346l-7.382,4.262A2.6,2.6,0,0,1,397.354,241.9Z" transform="translate(-316.073 -173.734)" fill="#173d7a"/><path d="M405.1,246.367l-7.449-4.3c-.6-.345-.523-.948.168-1.346l7.381-4.262a2.6,2.6,0,0,1,2.333-.1l7.449,4.3c.6.345.524.948-.166,1.348l-7.381,4.261A2.589,2.589,0,0,1,405.1,246.367Z" transform="translate(-312.312 -171.563)" fill="#173d7a"/><path d="M412.84,250.838l-7.449-4.3c-.6-.346-.523-.948.168-1.348l7.381-4.261a2.589,2.589,0,0,1,2.334-.1l7.449,4.3c.6.346.523.949-.168,1.348l-7.381,4.262A2.6,2.6,0,0,1,412.84,250.838Z" transform="translate(-308.551 -169.392)" fill="#173d7a"/><path d="M420.583,255.308l-7.449-4.3c-.6-.345-.523-.948.168-1.346l7.381-4.262a2.6,2.6,0,0,1,2.334-.1l7.449,4.3c.6.345.523.949-.168,1.347l-7.381,4.261A2.589,2.589,0,0,1,420.583,255.308Z" transform="translate(-304.791 -167.221)" fill="#173d7a"/><path d="M428.326,259.779l-7.449-4.3c-.6-.345-.523-.949.168-1.347l7.381-4.261a2.589,2.589,0,0,1,2.334-.1l7.449,4.3c.6.345.523.948-.168,1.346l-7.381,4.262A2.6,2.6,0,0,1,428.326,259.779Z" transform="translate(-301.031 -165.05)" fill="#173d7a"/><path d="M436.07,264.249l-7.449-4.3c-.6-.345-.523-.948.166-1.346l7.381-4.262a2.6,2.6,0,0,1,2.334-.1l7.449,4.3c.6.345.523.949-.168,1.347l-7.381,4.261A2.586,2.586,0,0,1,436.07,264.249Z" transform="translate(-297.27 -162.879)" fill="#173d7a"/><path d="M443.813,268.72l-7.449-4.3c-.6-.345-.523-.948.168-1.347l7.381-4.261a2.586,2.586,0,0,1,2.332-.1l7.449,4.3c.6.345.523.948-.168,1.346l-7.381,4.262A2.6,2.6,0,0,1,443.813,268.72Z" transform="translate(-293.509 -160.708)" fill="#173d7a"/><path d="M385.533,226.369l-7.449-4.3c-.6-.346-.523-.949.168-1.347l7.381-4.261a2.589,2.589,0,0,1,2.334-.1l7.449,4.3c.6.346.523.949-.168,1.347l-7.381,4.262A2.6,2.6,0,0,1,385.533,226.369Z" transform="translate(-321.813 -181.276)" fill="#396caa"/><path d="M377.675,221.831l-7.449-4.3c-.6-.346-.523-.949.166-1.348l7.381-4.262a2.6,2.6,0,0,1,2.334-.1l7.449,4.3c.6.346.523.949-.168,1.347l-7.381,4.261A2.586,2.586,0,0,1,377.675,221.831Z" transform="translate(-325.63 -183.479)" fill="#396caa"/><path d="M372.612,218.909l-16.044-9.263c-.6-.345-.523-.948.168-1.348l7.381-4.261a2.594,2.594,0,0,1,2.334-.1L382.5,213.2c.6.345.523.948-.168,1.346l-7.381,4.262A2.6,2.6,0,0,1,372.612,218.909Z" transform="translate(-332.262 -187.308)" fill="#173d7a"/><path d="M377.126,212.811l-13.019-7.517c-.6-.345-.523-.948.166-1.348l7.381-4.261a2.6,2.6,0,0,1,2.334-.1l13.02,7.517c.6.345.523.948-.168,1.346l-7.381,4.262A2.6,2.6,0,0,1,377.126,212.811Z" transform="translate(-328.602 -189.422)" fill="#173d7a"/><path d="M393.277,230.839l-7.449-4.3c-.6-.345-.524-.948.166-1.346l7.381-4.262a2.6,2.6,0,0,1,2.334-.1l7.449,4.3c.6.345.523.948-.168,1.348l-7.381,4.261A2.591,2.591,0,0,1,393.277,230.839Z" transform="translate(-318.053 -179.104)" fill="#396caa"/><path d="M401.02,235.31l-7.449-4.3c-.6-.346-.523-.949.166-1.347l7.382-4.261a2.586,2.586,0,0,1,2.333-.1l7.449,4.3c.6.346.523.949-.168,1.348l-7.381,4.262A2.6,2.6,0,0,1,401.02,235.31Z" transform="translate(-314.292 -176.933)" fill="#173d7a"/><path d="M408.763,239.78l-7.449-4.3c-.6-.345-.523-.948.168-1.346l7.381-4.262a2.6,2.6,0,0,1,2.332-.1l7.449,4.3c.6.345.523.948-.166,1.348l-7.381,4.261A2.589,2.589,0,0,1,408.763,239.78Z" transform="translate(-310.532 -174.762)" fill="#173d7a"/><path d="M416.506,244.251l-7.449-4.3c-.6-.346-.523-.948.168-1.347l7.381-4.261a2.586,2.586,0,0,1,2.332-.1l7.451,4.3c.6.345.523.948-.168,1.346l-7.381,4.262A2.6,2.6,0,0,1,416.506,244.251Z" transform="translate(-306.771 -172.591)" fill="#173d7a"/><path d="M424.249,248.721l-7.449-4.3c-.6-.345-.523-.948.168-1.346l7.381-4.262a2.6,2.6,0,0,1,2.334-.1l7.449,4.3c.6.345.523.948-.168,1.347l-7.381,4.261A2.594,2.594,0,0,1,424.249,248.721Z" transform="translate(-303.011 -170.42)" fill="#173d7a"/><path d="M431.992,253.192l-7.449-4.3c-.6-.345-.523-.949.168-1.347l7.381-4.261a2.589,2.589,0,0,1,2.334-.1l7.449,4.3c.6.345.523.948-.168,1.346l-7.381,4.262A2.6,2.6,0,0,1,431.992,253.192Z" transform="translate(-299.25 -168.249)" fill="#173d7a"/><path d="M439.736,257.662l-7.449-4.3c-.6-.345-.524-.948.166-1.346l7.381-4.262a2.6,2.6,0,0,1,2.334-.1l7.449,4.3c.6.346.523.948-.168,1.348l-7.381,4.261A2.586,2.586,0,0,1,439.736,257.662Z" transform="translate(-295.49 -166.078)" fill="#173d7a"/><path d="M447.479,262.133l-7.449-4.3c-.6-.346-.523-.948.166-1.348l7.382-4.261a2.586,2.586,0,0,1,2.333-.1l7.449,4.3c.6.345.523.948-.168,1.346l-7.381,4.262A2.6,2.6,0,0,1,447.479,262.133Z" transform="translate(-291.729 -163.907)" fill="#173d7a"/><path d="M455.222,266.6l-7.449-4.3c-.6-.346-.523-.949.168-1.347l7.381-4.262a2.6,2.6,0,0,1,2.333-.1l7.449,4.3c.6.345.523.949-.166,1.348l-7.382,4.261A2.586,2.586,0,0,1,455.222,266.6Z" transform="translate(-287.969 -161.735)" fill="#173d7a"/><path d="M471.865,276.213l-16.253-9.383c-.6-.346-.523-.949.168-1.348l7.381-4.262a2.6,2.6,0,0,1,2.334-.1l16.253,9.385c.6.345.523.948-.168,1.347l-7.381,4.261A2.6,2.6,0,0,1,471.865,276.213Z" transform="translate(-284.161 -159.537)" fill="#173d7a"/><path d="M486.111,267.03l-13.717-7.92c-.6-.345-.524-.948.166-1.348l7.381-4.261a2.594,2.594,0,0,1,2.334-.1l13.719,7.92c.6.346.523.949-.168,1.347l-7.381,4.261A2.589,2.589,0,0,1,486.111,267.03Z" transform="translate(-276.012 -163.286)" fill="#173d7a"/><path d="M406.836,229.965l-7.449-4.3c-.6-.346-.523-.949.168-1.348l7.381-4.261a2.594,2.594,0,0,1,2.334-.1l7.449,4.3c.6.346.523.949-.168,1.348l-7.381,4.261A2.594,2.594,0,0,1,406.836,229.965Z" transform="translate(-311.467 -179.529)" fill="#173d7a"/><path d="M398.9,225.383l-7.449-4.3c-.6-.346-.523-.948.166-1.348L399,215.474a2.586,2.586,0,0,1,2.333-.1l7.449,4.3c.6.346.523.949-.168,1.347l-7.381,4.262A2.6,2.6,0,0,1,398.9,225.383Z" transform="translate(-315.321 -181.755)" fill="#173d7a"/><path d="M390.965,220.8l-7.449-4.3c-.6-.345-.523-.948.168-1.348l7.381-4.261a2.6,2.6,0,0,1,2.332-.1l7.449,4.3c.6.345.523.948-.166,1.348L393.3,220.7A2.6,2.6,0,0,1,390.965,220.8Z" transform="translate(-319.175 -183.98)" fill="#396caa"/><path d="M383.029,216.219l-7.449-4.3c-.6-.346-.523-.949.168-1.348l7.381-4.262a2.6,2.6,0,0,1,2.334-.1l7.449,4.3c.6.345.523.949-.168,1.347l-7.381,4.261A2.589,2.589,0,0,1,383.029,216.219Z" transform="translate(-323.029 -186.205)" fill="#173d7a"/><path d="M414.58,234.435l-7.449-4.3c-.6-.345-.523-.948.166-1.347l7.381-4.261a2.6,2.6,0,0,1,2.334-.1l7.449,4.3c.6.345.523.948-.168,1.348l-7.381,4.261A2.6,2.6,0,0,1,414.58,234.435Z" transform="translate(-307.707 -177.358)" fill="#173d7a"/><path d="M422.323,238.906l-7.449-4.3c-.6-.346-.523-.949.168-1.348L422.423,229a2.591,2.591,0,0,1,2.333-.1l7.449,4.3c.6.346.523.949-.166,1.347l-7.382,4.261A2.591,2.591,0,0,1,422.323,238.906Z" transform="translate(-303.946 -175.187)" fill="#173d7a"/><path d="M430.066,243.376l-7.449-4.3c-.6-.345-.523-.948.168-1.347l7.381-4.261a2.591,2.591,0,0,1,2.332-.1l7.449,4.3c.6.345.524.948-.166,1.348L432.4,243.28A2.594,2.594,0,0,1,430.066,243.376Z" transform="translate(-300.186 -173.016)" fill="#173d7a"/><path d="M437.809,247.846l-7.449-4.3c-.6-.346-.523-.949.168-1.347l7.381-4.261a2.594,2.594,0,0,1,2.334-.1l7.449,4.3c.6.346.523.949-.168,1.347l-7.381,4.261A2.589,2.589,0,0,1,437.809,247.846Z" transform="translate(-296.425 -170.845)" fill="#173d7a"/><path d="M445.552,252.317l-7.449-4.3c-.6-.345-.523-.948.168-1.347l7.381-4.261a2.6,2.6,0,0,1,2.334-.1l7.449,4.3c.6.345.523.948-.168,1.348l-7.381,4.261A2.6,2.6,0,0,1,445.552,252.317Z" transform="translate(-292.665 -168.674)" fill="#173d7a"/><path d="M453.295,256.788l-7.449-4.3c-.6-.346-.523-.949.168-1.348l7.381-4.261a2.589,2.589,0,0,1,2.334-.1l7.449,4.3c.6.346.523.949-.168,1.347l-7.381,4.262A2.6,2.6,0,0,1,453.295,256.788Z" transform="translate(-288.904 -166.503)" fill="#173d7a"/><path d="M461.039,261.258l-7.449-4.3c-.6-.345-.523-.948.166-1.348l7.381-4.261a2.6,2.6,0,0,1,2.334-.1l7.449,4.3c.6.345.523.948-.168,1.348l-7.381,4.261A2.591,2.591,0,0,1,461.039,261.258Z" transform="translate(-285.144 -164.331)" fill="#173d7a"/><path d="M468.782,265.729l-7.449-4.3c-.6-.346-.523-.949.168-1.348l7.381-4.261a2.586,2.586,0,0,1,2.332-.1l7.449,4.3c.6.346.523.949-.166,1.348l-7.382,4.262A2.6,2.6,0,0,1,468.782,265.729Z" transform="translate(-281.383 -162.16)" fill="#173d7a"/><path d="M476.525,270.2l-7.449-4.3c-.6-.345-.523-.948.168-1.348l7.381-4.261a2.6,2.6,0,0,1,2.333-.1l7.449,4.3c.6.345.524.948-.166,1.348l-7.381,4.261A2.594,2.594,0,0,1,476.525,270.2Z" transform="translate(-277.623 -159.989)" fill="#173d7a"/><path d="M402.759,218.907l-7.449-4.3c-.6-.345-.523-.948.168-1.348L402.858,209a2.594,2.594,0,0,1,2.334-.1l7.449,4.3c.6.345.523.948-.168,1.347l-7.381,4.261A2.6,2.6,0,0,1,402.759,218.907Z" transform="translate(-313.447 -184.9)" fill="#173d7a"/><path d="M395.055,214.459l-7.449-4.3c-.6-.346-.524-.949.166-1.348l7.381-4.261a2.589,2.589,0,0,1,2.334-.1l7.449,4.3c.6.346.523.949-.168,1.347l-7.381,4.262A2.6,2.6,0,0,1,395.055,214.459Z" transform="translate(-317.189 -187.06)" fill="#173d7a"/><path d="M387.35,210.01l-7.449-4.3c-.6-.346-.523-.949.168-1.347l7.381-4.262a2.6,2.6,0,0,1,2.333-.1l7.449,4.3c.6.346.524.949-.166,1.348l-7.381,4.261A2.589,2.589,0,0,1,387.35,210.01Z" transform="translate(-320.931 -189.22)" fill="#173d7a"/><path d="M379.645,205.562l-7.449-4.3c-.6-.345-.523-.948.168-1.348l7.381-4.261a2.6,2.6,0,0,1,2.334-.1l7.449,4.3c.6.345.523.948-.168,1.347l-7.381,4.261A2.594,2.594,0,0,1,379.645,205.562Z" transform="translate(-324.673 -191.38)" fill="#173d7a"/><path d="M387.568,200.056l-7.449-4.3c-.6-.345-.523-.948.168-1.347L382.726,193a2.6,2.6,0,0,1,2.334-.1l7.449,4.3c.6.345.523.948-.168,1.348l-2.439,1.408A2.6,2.6,0,0,1,387.568,200.056Z" transform="translate(-320.825 -192.669)" fill="#173d7a"/><path d="M397.623,205.861l-7.449-4.3c-.6-.345-.524-.948.166-1.348l2.441-1.408a2.591,2.591,0,0,1,2.333-.1l7.449,4.3c.6.345.523.948-.166,1.347l-2.441,1.408A2.6,2.6,0,0,1,397.623,205.861Z" transform="translate(-315.942 -189.85)" fill="#173d7a"/><path d="M405.295,210.291l-7.449-4.3c-.6-.346-.523-.949.168-1.347l2.439-1.408a2.589,2.589,0,0,1,2.334-.1l7.449,4.3c.6.345.523.948-.168,1.346l-2.439,1.41A2.6,2.6,0,0,1,405.295,210.291Z" transform="translate(-312.216 -187.699)" fill="#173d7a"/><path d="M412.968,214.719l-7.449-4.3c-.6-.346-.523-.949.166-1.348l2.441-1.408a2.591,2.591,0,0,1,2.333-.1l7.449,4.3c.6.346.523.949-.166,1.348l-2.441,1.408A2.586,2.586,0,0,1,412.968,214.719Z" transform="translate(-308.49 -185.548)" fill="#173d7a"/><path d="M420.64,219.15l-7.449-4.3c-.6-.345-.523-.948.168-1.346l2.439-1.41a2.6,2.6,0,0,1,2.334-.1l7.449,4.3c.6.346.523.948-.168,1.347l-2.439,1.408A2.594,2.594,0,0,1,420.64,219.15Z" transform="translate(-304.763 -183.396)" fill="#173d7a"/><path d="M463.475,243.881l-7.449-4.3c-.6-.346-.523-.949.168-1.347l2.439-1.408a2.591,2.591,0,0,1,2.333-.1l7.451,4.3c.6.345.523.948-.168,1.346l-2.441,1.41A2.6,2.6,0,0,1,463.475,243.881Z" transform="translate(-283.961 -171.386)" fill="#173d7a"/><path d="M471.147,248.311l-7.449-4.3c-.6-.346-.523-.949.168-1.348l2.44-1.408a2.589,2.589,0,0,1,2.334-.1l7.449,4.3c.6.346.523.949-.168,1.347l-2.439,1.408A2.594,2.594,0,0,1,471.147,248.311Z" transform="translate(-280.234 -169.234)" fill="#173d7a"/><path d="M478.82,252.74l-7.449-4.3c-.6-.345-.523-.948.168-1.347l2.439-1.408a2.6,2.6,0,0,1,2.334-.1l7.449,4.3c.6.346.523.948-.168,1.348l-2.441,1.408A2.586,2.586,0,0,1,478.82,252.74Z" transform="translate(-276.508 -167.083)" fill="#173d7a"/><path d="M486.492,257.169l-7.449-4.3c-.6-.345-.523-.948.168-1.348l2.439-1.408a2.6,2.6,0,0,1,2.334-.1l7.449,4.3c.6.345.523.948-.168,1.347l-2.439,1.408A2.6,2.6,0,0,1,486.492,257.169Z" transform="translate(-272.782 -164.932)" fill="#173d7a"/><path d="M410.5,223.377l-7.449-4.3c-.6-.346-.523-.949.168-1.347l7.381-4.261a2.594,2.594,0,0,1,2.334-.1l7.449,4.3c.6.346.523.949-.168,1.348l-7.381,4.261A2.589,2.589,0,0,1,410.5,223.377Z" transform="translate(-309.687 -182.728)" fill="#173d7a"/><path d="M418.246,227.848l-7.449-4.3c-.6-.345-.524-.948.166-1.348l7.381-4.261a2.594,2.594,0,0,1,2.334-.1l7.449,4.3c.6.345.523.948-.168,1.347l-7.381,4.261A2.6,2.6,0,0,1,418.246,227.848Z" transform="translate(-305.926 -180.557)" fill="#173d7a"/><path d="M425.989,232.318l-7.449-4.3c-.6-.346-.523-.949.166-1.347l7.382-4.262a2.6,2.6,0,0,1,2.332-.1l7.449,4.3c.6.346.523.949-.168,1.348l-7.381,4.261A2.586,2.586,0,0,1,425.989,232.318Z" transform="translate(-302.166 -178.386)" fill="#173d7a"/><path d="M433.732,236.789l-7.449-4.3c-.6-.345-.523-.948.168-1.348l7.381-4.261a2.6,2.6,0,0,1,2.332-.1l7.449,4.3c.6.345.523.948-.166,1.347l-7.381,4.261A2.6,2.6,0,0,1,433.732,236.789Z" transform="translate(-298.405 -176.215)" fill="#173d7a"/><path d="M441.475,241.26l-7.449-4.3c-.6-.346-.523-.949.168-1.348l7.381-4.261a2.594,2.594,0,0,1,2.334-.1l7.449,4.3c.6.346.523.949-.168,1.348l-7.381,4.261A2.594,2.594,0,0,1,441.475,241.26Z" transform="translate(-294.645 -174.044)" fill="#173d7a"/><path d="M449.218,245.73l-7.449-4.3c-.6-.345-.523-.948.168-1.348l7.381-4.261a2.6,2.6,0,0,1,2.334-.1l7.449,4.3c.6.345.523.948-.168,1.347l-7.381,4.261A2.6,2.6,0,0,1,449.218,245.73Z" transform="translate(-290.884 -171.873)" fill="#173d7a"/><path d="M456.961,250.2l-7.449-4.3c-.6-.346-.523-.949.168-1.347l7.381-4.261a2.589,2.589,0,0,1,2.334-.1l7.449,4.3c.6.346.523.949-.168,1.348l-7.381,4.261A2.594,2.594,0,0,1,456.961,250.2Z" transform="translate(-287.124 -169.702)" fill="#173d7a"/><path d="M464.705,254.671l-7.449-4.3c-.6-.345-.524-.948.166-1.348l7.381-4.261a2.6,2.6,0,0,1,2.334-.1l7.449,4.3c.6.345.523.948-.168,1.348l-7.381,4.261A2.591,2.591,0,0,1,464.705,254.671Z" transform="translate(-283.363 -167.53)" fill="#173d7a"/><path d="M472.448,259.142l-7.449-4.3c-.6-.346-.523-.949.166-1.348l7.382-4.261a2.591,2.591,0,0,1,2.333-.1l7.449,4.3c.6.346.523.949-.168,1.347l-7.381,4.261A2.591,2.591,0,0,1,472.448,259.142Z" transform="translate(-279.603 -165.359)" fill="#173d7a"/><path d="M370.969,226.664,349.032,214c-.6-.346-.523-.949.166-1.348l7.381-4.261a2.589,2.589,0,0,1,2.334-.1l21.939,12.665c.6.346.523.949-.168,1.347l-7.381,4.261A2.589,2.589,0,0,1,370.969,226.664Z" transform="translate(-335.923 -185.195)" fill="#173d7a"/><path d="M466.1,281.586l-21.939-12.667c-.6-.345-.523-.948.168-1.347l7.381-4.261a2.6,2.6,0,0,1,2.334-.1l21.939,12.667c.6.345.523.948-.168,1.346l-7.381,4.262A2.6,2.6,0,0,1,466.1,281.586Z" transform="translate(-289.724 -158.522)" fill="#173d7a"/><path d="M430.394,271.113l-7.449-4.3c-.6-.346-.523-.949.168-1.347l8.792-5.076a2.594,2.594,0,0,1,2.334-.1l7.449,4.3c.6.345.523.948-.168,1.346l-8.792,5.076A2.589,2.589,0,0,1,430.394,271.113Z" transform="translate(-300.026 -159.941)" fill="#173d7a"/><path d="M375.622,239.491l-11.913-6.877c-.6-.346-.523-.949.168-1.348l8.792-5.076a2.594,2.594,0,0,1,2.334-.1l11.914,6.879c.6.345.523.948-.168,1.346l-8.792,5.076A2.589,2.589,0,0,1,375.622,239.491Z" transform="translate(-328.795 -176.55)" fill="#173d7a"/><path d="M424.392,267.649,412.48,260.77c-.6-.345-.523-.948.166-1.346l8.794-5.076a2.586,2.586,0,0,1,2.333-.1l11.913,6.877c.6.346.523.949-.168,1.347l-8.792,5.076A2.6,2.6,0,0,1,424.392,267.649Z" transform="translate(-305.109 -162.875)" fill="#173d7a"/><path d="M386.795,245.941l-11.914-6.877c-.6-.346-.523-.949.168-1.348l8.792-5.076a2.6,2.6,0,0,1,2.334-.1l11.913,6.879c.6.345.523.948-.168,1.346l-8.794,5.076A2.586,2.586,0,0,1,386.795,245.941Z" transform="translate(-323.369 -173.417)" fill="#173d7a"/><path d="M386.1,232.5l51.8,29.9a.709.709,0,0,1,0,1.343l-8.967,5.177a2.577,2.577,0,0,1-2.327,0l-51.8-29.9Z" transform="translate(-323.211 -173.326)" fill="#173d7a"/><path d="M451.422,275.668l8.3,4.791c.49.282.429.777-.137,1.1l-3.6,2.077a2.125,2.125,0,0,1-1.914.079l-8.3-4.791c-.49-.282-.428-.777.138-1.1l3.6-2.077A2.127,2.127,0,0,1,451.422,275.668Z" transform="translate(-288.903 -152.453)" fill="#173d7a"/><path d="M443.615,271.16l8.3,4.791c.49.284.428.777-.138,1.1l-3.6,2.077a2.122,2.122,0,0,1-1.912.079l-8.3-4.79c-.49-.284-.429-.777.137-1.1l3.6-2.077A2.13,2.13,0,0,1,443.615,271.16Z" transform="translate(-292.695 -154.642)" fill="#173d7a"/><path d="M435.871,266.691l8.3,4.79c.49.284.428.779-.138,1.105l-3.6,2.077a2.131,2.131,0,0,1-1.912.079l-8.3-4.791c-.49-.282-.429-.777.137-1.1l3.6-2.077A2.122,2.122,0,0,1,435.871,266.691Z" transform="translate(-296.456 -156.814)" fill="#173d7a"/><path d="M447.891,268.693l8.3,4.79c.49.284.428.779-.138,1.1l-3.6,2.077a2.127,2.127,0,0,1-1.912.08l-8.3-4.791c-.49-.282-.429-.777.137-1.1l3.6-2.077A2.125,2.125,0,0,1,447.891,268.693Z" transform="translate(-290.618 -155.841)" fill="#173d7a"/></g></g><g transform="translate(468.153 151.117)"><path d="M439.738,135.186l-11.009-6.356a3.149,3.149,0,0,1-1.343-3.261h0a1.531,1.531,0,0,1,2.355-1.123L440.75,130.8a3.149,3.149,0,0,1,1.343,3.26h0A1.531,1.531,0,0,1,439.738,135.186Z" transform="translate(-379.891 -109.06)" fill="#4dd0e1"/><path d="M459.1,146.362l-16.232-9.372a3.144,3.144,0,0,1-1.343-3.26h0a1.531,1.531,0,0,1,2.355-1.125l16.232,9.372a3.149,3.149,0,0,1,1.343,3.26h0A1.531,1.531,0,0,1,459.1,146.362Z" transform="translate(-373.027 -105.097)" fill="#4dd0e1"/><path d="M426.821,169.774l-11.007-6.356a3.146,3.146,0,0,1-1.343-3.261h0a1.532,1.532,0,0,1,2.355-1.125l11.009,6.357a3.149,3.149,0,0,1,1.343,3.26h0A1.532,1.532,0,0,1,426.821,169.774Z" transform="translate(-386.164 -92.262)" fill="#ffca28"/><path d="M444.263,179.844l-16.232-9.372a3.151,3.151,0,0,1-1.343-3.261h0a1.532,1.532,0,0,1,2.355-1.125l16.232,9.373a3.145,3.145,0,0,1,1.343,3.26h0A1.531,1.531,0,0,1,444.263,179.844Z" transform="translate(-380.231 -88.837)" fill="#4dd0e1"/><path d="M416.528,128.794l-6.876-3.97a3.149,3.149,0,0,1-1.344-3.261h0a1.532,1.532,0,0,1,2.356-1.123l6.877,3.97a3.149,3.149,0,0,1,1.343,3.26h0A1.532,1.532,0,0,1,416.528,128.794Z" transform="translate(-389.157 -111.006)" fill="#ffca28"/><path d="M435.415,146.705l-21.01-12.13a3.15,3.15,0,0,1-1.344-3.261h0a1.532,1.532,0,0,1,2.356-1.123l21.01,12.13a3.147,3.147,0,0,1,1.344,3.26h0A1.533,1.533,0,0,1,435.415,146.705Z" transform="translate(-386.849 -106.27)" fill="#ffca28"/><path d="M418.427,150.912l-6.877-3.971a3.146,3.146,0,0,1-1.343-3.26h0a1.531,1.531,0,0,1,2.355-1.125l6.877,3.971a3.149,3.149,0,0,1,1.343,3.26h0A1.531,1.531,0,0,1,418.427,150.912Z" transform="translate(-388.235 -100.264)" fill="#ffca28"/><path d="M447.342,195.635l-18.367-10.6a3.148,3.148,0,0,1-1.343-3.26h0a1.531,1.531,0,0,1,2.355-1.125l18.369,10.6a3.15,3.15,0,0,1,1.343,3.26h0A1.532,1.532,0,0,1,447.342,195.635Z" transform="translate(-379.772 -81.766)" fill="#ffca28"/><path d="M413.108,161.856l-4.414-2.548a3.149,3.149,0,0,1-1.343-3.26h0a1.532,1.532,0,0,1,2.356-1.125l4.414,2.548a3.149,3.149,0,0,1,1.343,3.26h0A1.532,1.532,0,0,1,413.108,161.856Z" transform="translate(-389.621 -94.258)" fill="#ffca28"/><path d="M411.323,174.84l-5.482-3.166a3.145,3.145,0,0,1-1.343-3.26h0a1.531,1.531,0,0,1,2.355-1.125l5.482,3.166a3.149,3.149,0,0,1,1.343,3.26h0A1.531,1.531,0,0,1,411.323,174.84Z" transform="translate(-391.007 -88.253)" fill="#ffca28"/><path d="M428.609,184.819l-14.452-8.343a3.147,3.147,0,0,1-1.343-3.26h0a1.531,1.531,0,0,1,2.355-1.125l14.452,8.343a3.151,3.151,0,0,1,1.343,3.261h0A1.531,1.531,0,0,1,428.609,184.819Z" transform="translate(-386.969 -85.921)" fill="#ffca28"/><path d="M414.8,183.857l-10.392-6a3.15,3.15,0,0,1-1.343-3.261h0a1.532,1.532,0,0,1,2.356-1.123l10.391,6a3.147,3.147,0,0,1,1.343,3.26h0A1.531,1.531,0,0,1,414.8,183.857Z" transform="translate(-391.701 -85.249)" fill="#ffca28"/><path d="M454.127,199.583l-6.674-3.852a3.15,3.15,0,0,1-1.343-3.26h0a1.532,1.532,0,0,1,2.356-1.125l6.674,3.852a3.149,3.149,0,0,1,1.343,3.26h0A1.532,1.532,0,0,1,454.127,199.583Z" transform="translate(-370.798 -76.569)" fill="#ffca28"/><path d="M439.4,163.021l-18.367-10.6a3.146,3.146,0,0,1-1.343-3.26h0a1.531,1.531,0,0,1,2.355-1.125l18.367,10.6a3.147,3.147,0,0,1,1.343,3.26h0A1.531,1.531,0,0,1,439.4,163.021Z" transform="translate(-383.629 -97.605)" fill="#ffca28"/><path d="M444.989,159.241l-32.013-18.483a3.149,3.149,0,0,1-1.343-3.26h0a1.531,1.531,0,0,1,2.355-1.125L446,154.855a3.151,3.151,0,0,1,1.343,3.261h0A1.531,1.531,0,0,1,444.989,159.241Z" transform="translate(-387.542 -103.267)" fill="#ffca28"/><path d="M428.49,163.728l-18.367-10.6a3.146,3.146,0,0,1-1.343-3.261h0a1.532,1.532,0,0,1,2.355-1.125l18.367,10.6a3.151,3.151,0,0,1,1.343,3.261h0A1.531,1.531,0,0,1,428.49,163.728Z" transform="translate(-388.928 -97.261)" fill="#ffca28"/><path d="M444.955,166.229l-6.674-3.854a3.149,3.149,0,0,1-1.343-3.259h0a1.531,1.531,0,0,1,2.355-1.125l6.674,3.854a3.145,3.145,0,0,1,1.343,3.26h0A1.531,1.531,0,0,1,444.955,166.229Z" transform="translate(-375.252 -92.769)" fill="#ffca28"/><path d="M500.032,170l-39.518-22.817a3.143,3.143,0,0,1-1.343-3.26h0a1.531,1.531,0,0,1,2.355-1.125l39.518,22.817a3.149,3.149,0,0,1,1.343,3.261h0A1.531,1.531,0,0,1,500.032,170Z" transform="translate(-364.455 -100.148)" fill="#4dd0e1"/><path d="M429.346,178.239l-22.078-12.748a3.149,3.149,0,0,1-1.343-3.26h0a1.531,1.531,0,0,1,2.355-1.125l22.08,12.747a3.151,3.151,0,0,1,1.343,3.261h0A1.533,1.533,0,0,1,429.346,178.239Z" transform="translate(-390.314 -91.255)" fill="#ffca28"/><path d="M427.312,128.011l-16.232-9.372a3.146,3.146,0,0,1-1.343-3.26h0a1.531,1.531,0,0,1,2.355-1.125l16.232,9.372a3.15,3.15,0,0,1,1.343,3.26h0A1.531,1.531,0,0,1,427.312,128.011Z" transform="translate(-388.463 -114.009)" fill="#4dd0e1"/><path d="M415.606,191.327l-18.8-10.854a3.145,3.145,0,0,1-1.343-3.26h0a1.531,1.531,0,0,1,2.355-1.125l18.8,10.854a3.146,3.146,0,0,1,1.343,3.26h0A1.531,1.531,0,0,1,415.606,191.327Z" transform="translate(-395.395 -83.979)" fill="#4dd0e1"/><g transform="translate(122.321 93.134)"><path d="M498.7,216.527l-11.009-6.356a3.149,3.149,0,0,1-1.343-3.26h0a1.532,1.532,0,0,1,2.356-1.125l11.007,6.356a3.144,3.144,0,0,1,1.343,3.26h0A1.531,1.531,0,0,1,498.7,216.527Z" transform="translate(-473.58 -162.69)" fill="#4dd0e1"/><path d="M507.289,193.459l-21.012-12.13a3.15,3.15,0,0,1-1.343-3.26h0a1.531,1.531,0,0,1,2.355-1.125l21.012,12.13a3.147,3.147,0,0,1,1.343,3.26h0A1.531,1.531,0,0,1,507.289,193.459Z" transform="translate(-474.264 -176.698)" fill="#4dd0e1"/><path d="M490.3,197.666l-6.876-3.971a3.144,3.144,0,0,1-1.343-3.26h0a1.531,1.531,0,0,1,2.355-1.125l6.877,3.971a3.149,3.149,0,0,1,1.343,3.26h0A1.532,1.532,0,0,1,490.3,197.666Z" transform="translate(-475.651 -170.692)" fill="#ffca28"/><path d="M484.982,208.61l-4.414-2.548a3.149,3.149,0,0,1-1.343-3.26h0a1.531,1.531,0,0,1,2.355-1.125l4.414,2.548a3.148,3.148,0,0,1,1.345,3.26h0A1.532,1.532,0,0,1,484.982,208.61Z" transform="translate(-477.037 -164.686)" fill="#ffca28"/><path d="M511.275,209.775l-18.367-10.6a3.147,3.147,0,0,1-1.345-3.26h0a1.533,1.533,0,0,1,2.356-1.125l18.367,10.6a3.149,3.149,0,0,1,1.343,3.26h0A1.531,1.531,0,0,1,511.275,209.775Z" transform="translate(-471.045 -168.033)" fill="#ffca28"/><path d="M516.862,205.995,484.85,187.512a3.149,3.149,0,0,1-1.343-3.26h0a1.531,1.531,0,0,1,2.355-1.125l32.013,18.483a3.149,3.149,0,0,1,1.343,3.26h0A1.532,1.532,0,0,1,516.862,205.995Z" transform="translate(-474.957 -173.695)" fill="#ffca28"/><path d="M500.363,210.484,482,199.879a3.15,3.15,0,0,1-1.343-3.26h0a1.532,1.532,0,0,1,2.356-1.125l18.367,10.6a3.149,3.149,0,0,1,1.343,3.26h0A1.532,1.532,0,0,1,500.363,210.484Z" transform="translate(-476.344 -167.689)" fill="#ffca28"/><path d="M501.22,224.993l-22.078-12.748a3.147,3.147,0,0,1-1.343-3.26h0a1.531,1.531,0,0,1,2.355-1.125l22.078,12.748a3.143,3.143,0,0,1,1.343,3.26h0A1.531,1.531,0,0,1,501.22,224.993Z" transform="translate(-477.73 -161.683)" fill="#ffca28"/></g></g><g transform="translate(522.415 37.601)"><path d="M521.844,147.815l17.349-6.9-3.9-25.522-8.421,7.461Z" transform="translate(-388.246 0.178)" fill="#4dd0e1"/><path d="M443.694,62.6,485.6,45.849S477.883,62.563,477.87,62.6s-22.378,5.18-22.378,5.18Z" transform="translate(-426.2 -33.596)" fill="#4dd0e1"/><path d="M567.165,136.048a18.436,18.436,0,0,0-6.792-2.334c2.313-15.426-4.35-31.707-17.14-39.1a27.91,27.91,0,0,0-11.983-3.765c5.011-18.7-2.729-39.945-18.5-49.059a29.054,29.054,0,0,0-25-2.41l.006-.013-.386.155c-.2.077-.4.157-.6.241L473.63,44.931l5.237,4.506c-7.1,2.237-13.242,7.979-16.485,16.468-5.98,15.653.154,34.689,13.7,42.515L556.614,176.3c10.174,5.877,16.35,3.423,20.839-8.332S577.337,141.925,567.165,136.048Z" transform="translate(-418.236 -37.601)" fill="#4dd0e1"/><path d="M464.1,59.014l45.174-18.048A28.86,28.86,0,0,0,485.8,39.384l.006-.013-.386.155c-.2.077-.4.157-.6.241l-13.132,5.166,5.237,4.506A25.061,25.061,0,0,0,464.1,59.014Z" transform="translate(-416.289 -37.601)" fill="#39b1c1"/><path d="M516.229,108.622l29.83-11.9c-2.757-8.528-8.192-15.978-15.7-20.318a29.013,29.013,0,0,0-3.013-1.515L486.253,91.3Z" transform="translate(-405.531 -19.491)" fill="#98e3ed"/><path d="M475.371,46.57l12.8,7.4,22.216-8.846a35.3,35.3,0,0,0-5.065-3.572,31.39,31.39,0,0,0-8.687-3.444Z" transform="translate(-410.816 -37.357)" fill="#98e3ed"/><path d="M532.2,86.247l-21.472,8.547,6.335,8.9,18.425-7.326A41.385,41.385,0,0,0,532.2,86.247Z" transform="translate(-393.644 -13.976)" fill="#39b1c1"/><path d="M566.488,139.849a18.4,18.4,0,0,0-6.792-2.334c2.313-15.426-4.522-31.808-17.311-39.2a27.007,27.007,0,0,0-11.811-3.665c5.011-18.7-2.731-39.946-18.505-49.059-16.966-9.8-36.791-1.857-44.278,17.746-.254.666-.487,1.336-.707,2.01-12.945-5.758-27.256.729-32.875,15.436-5.98,15.653.155,34.689,13.7,42.515l102.316,59.114c10.174,5.877,22.06,1.113,26.55-10.642S576.661,145.726,566.488,139.849Z" transform="translate(-431.918 -35.758)" fill="#a0e8f2"/><g transform="translate(6.593 10.771)"><path d="M453.363,66.734a13.453,13.453,0,0,0-5.4,1.092c-4.062,1.772-7.574,5.885-9.636,11.282-5.255,13.753.362,31.182,12.264,38.06l102.317,59.113c3.215,1.857,6.543,2.327,9.128,1.291s4.885-3.762,6.3-7.476c3.793-9.927-.261-22.506-8.852-27.47a13.3,13.3,0,0,0-4.865-1.707l-4.154-.56.533-3.561c2.133-14.225-4.435-29.239-15.619-35.7a21.541,21.541,0,0,0-9.412-2.992l-5.149-.333,1.157-4.319c4.6-17.144-2.833-36.947-16.913-45.082-6.546-3.781-13.444-4.545-19.416-2.153S474.8,54.1,471.912,61.662c-.224.587-.429,1.178-.624,1.772l-2.759,8.476L460.5,68.34A17.643,17.643,0,0,0,453.363,66.734Z" transform="translate(-436.357 -44.852)" fill="#4dd0e1"/></g><g transform="translate(58.824 75.454)"><path d="M482.843,96.627a3.716,3.716,0,0,0,1.429,4.438,2.533,2.533,0,0,0,3.692-1.48,3.718,3.718,0,0,0-1.431-4.438A2.531,2.531,0,0,0,482.843,96.627Z" transform="translate(-466.127 -85.277)" fill="#fff"/><path d="M477.3,93.423a3.717,3.717,0,0,0,1.431,4.438,2.531,2.531,0,0,0,3.69-1.478,3.717,3.717,0,0,0-1.429-4.439A2.533,2.533,0,0,0,477.3,93.423Z" transform="translate(-468.82 -86.833)" fill="#fff"/><path d="M471.752,90.219a3.716,3.716,0,0,0,1.431,4.438,2.531,2.531,0,0,0,3.69-1.478,3.719,3.719,0,0,0-1.431-4.439A2.531,2.531,0,0,0,471.752,90.219Z" transform="translate(-471.513 -88.389)" fill="#fff"/></g></g><g transform="translate(329.832 134.603)"><path d="M347.352,211.418l-36.425-21.029c-2.236-1.291-1.955-3.545.625-5.036l35.171-20.306c2.582-1.49,6.486-1.652,8.722-.361l36.425,21.029c2.234,1.291,1.955,3.546-.627,5.036l-35.171,20.306C353.492,212.547,349.586,212.709,347.352,211.418Z" transform="translate(-298.829 -73.307)" fill="#c4d9e8" opacity="0.5"/><g transform="translate(0 50.3)"><path d="M407.412,175.584h0V159.845l-35.29-.019-12.2-7.042c-2.8-1.616-7.69-1.414-10.921.452l-11.382,6.571-35.32-.019v16.185a3.165,3.165,0,0,0,1.875,2.927l45.611,26.335c2.8,1.616,7.69,1.413,10.923-.453l44.042-25.428C406.618,178.276,407.516,176.881,407.412,175.584Z" transform="translate(-302.287 -129.494)" fill="#396caa"/><path d="M354.857,151.7A12.594,12.594,0,0,0,349,153.233L337.622,159.8l-35.32-.019v16.185a3.165,3.165,0,0,0,1.875,2.927l45.611,26.335a9.918,9.918,0,0,0,5.069,1.083Z" transform="translate(-302.287 -129.491)" fill="#396caa"/><path d="M306.3,157.142h-4v16.185a3.165,3.165,0,0,0,1.875,2.927l2.122,1.226Z" transform="translate(-302.287 -126.848)" fill="#5793ce"/><path d="M334.737,194a12.433,12.433,0,0,0,8.73-.1V175.525h-8.73Z" transform="translate(-286.532 -117.92)" fill="#5793ce"/><path d="M349.791,196.362,304.18,170.028c-2.8-1.616-2.448-4.439.784-6.305l44.042-25.428c3.231-1.866,8.122-2.07,10.921-.453l45.613,26.335c2.8,1.616,2.448,4.439-.784,6.305L360.713,195.91C357.481,197.776,352.591,197.978,349.791,196.362Z" transform="translate(-302.29 -136.751)" fill="#d4ecff"/><path d="M347.829,190.015l-38.223-22.068c-2.346-1.355-2.052-3.72.657-5.284l36.908-21.309c2.708-1.564,6.806-1.734,9.152-.379l38.224,22.068c2.346,1.355,2.052,3.72-.658,5.284l-36.907,21.309C354.272,191.2,350.174,191.37,347.829,190.015Z" transform="translate(-299.506 -135.143)" fill="#5793ce"/><g transform="translate(84.663 42.083)"><path d="M362.961,171a4.07,4.07,0,0,1-1.842,3.191c-1.016.587-1.842.111-1.842-1.064a4.077,4.077,0,0,1,1.842-3.191C362.137,169.348,362.961,169.824,362.961,171Z" transform="translate(-359.277 -162.839)" fill="#d4ecff"/><path d="M366.951,168.7a4.073,4.073,0,0,1-1.842,3.191c-1.018.587-1.842.11-1.842-1.064a4.071,4.071,0,0,1,1.842-3.191C366.127,167.044,366.951,167.521,366.951,168.7Z" transform="translate(-357.339 -163.958)" fill="#d4ecff"/><path d="M370.941,166.392a4.071,4.071,0,0,1-1.842,3.191c-1.018.587-1.842.111-1.842-1.064a4.073,4.073,0,0,1,1.842-3.191C370.117,164.741,370.941,165.217,370.941,166.392Z" transform="translate(-355.401 -165.077)" fill="#d4ecff"/></g></g><g transform="translate(0 25.151)"><path d="M407.412,158.655h0V142.917l-35.29-.021-12.2-7.042c-2.8-1.616-7.69-1.413-10.921.453l-11.382,6.57-35.32-.019v16.186a3.163,3.163,0,0,0,1.875,2.925L349.788,188.3c2.8,1.616,7.69,1.413,10.923-.453l44.042-25.427C406.618,161.347,407.516,159.953,407.412,158.655Z" transform="translate(-302.287 -112.566)" fill="#396caa"/><path d="M354.857,134.769A12.6,12.6,0,0,0,349,136.305l-11.382,6.57-35.32-.019v16.186a3.163,3.163,0,0,0,1.875,2.925L349.788,188.3a9.888,9.888,0,0,0,5.069,1.083Z" transform="translate(-302.287 -112.563)" fill="#396caa"/><path d="M306.3,140.215l-4,0V156.4a3.163,3.163,0,0,0,1.875,2.925l2.122,1.226Z" transform="translate(-302.287 -109.92)" fill="#5793ce"/><path d="M334.737,177.075a12.449,12.449,0,0,0,8.73-.1V158.6h-8.73Z" transform="translate(-286.532 -100.992)" fill="#5793ce"/><path d="M349.791,179.434,304.18,153.1c-2.8-1.616-2.448-4.439.784-6.305l44.042-25.428c3.231-1.866,8.122-2.068,10.921-.452l45.613,26.333c2.8,1.616,2.448,4.439-.784,6.305l-44.042,25.428C357.481,180.847,352.591,181.049,349.791,179.434Z" transform="translate(-302.29 -119.822)" fill="#d4ecff"/><path d="M347.829,173.086l-38.223-22.068c-2.346-1.355-2.052-3.72.657-5.284l36.908-21.309c2.708-1.563,6.806-1.734,9.152-.379l38.224,22.068c2.346,1.355,2.052,3.72-.658,5.284l-36.907,21.309C354.272,174.271,350.174,174.441,347.829,173.086Z" transform="translate(-299.506 -118.215)" fill="#5793ce"/><g transform="translate(84.663 42.083)"><path d="M362.961,154.07a4.07,4.07,0,0,1-1.842,3.191c-1.016.588-1.842.111-1.842-1.064a4.074,4.074,0,0,1,1.842-3.19C362.137,152.419,362.961,152.9,362.961,154.07Z" transform="translate(-359.277 -145.911)" fill="#d4ecff"/><path d="M366.951,151.767a4.073,4.073,0,0,1-1.842,3.191c-1.018.587-1.842.111-1.842-1.064a4.071,4.071,0,0,1,1.842-3.191C366.127,150.116,366.951,150.592,366.951,151.767Z" transform="translate(-357.339 -147.03)" fill="#d4ecff"/><path d="M370.941,149.463a4.071,4.071,0,0,1-1.842,3.191c-1.018.588-1.842.111-1.842-1.064a4.07,4.07,0,0,1,1.842-3.19C370.117,147.812,370.941,148.289,370.941,149.463Z" transform="translate(-355.401 -148.148)" fill="#d4ecff"/></g></g><g transform="translate(0 0)"><path d="M407.412,141.726h0V125.988l-35.29-.019-12.2-7.043c-2.8-1.616-7.69-1.413-10.921.453l-11.382,6.571-35.32-.021v16.186a3.167,3.167,0,0,0,1.875,2.927l45.611,26.333c2.8,1.616,7.69,1.414,10.923-.453L404.753,145.5C406.618,144.418,407.516,143.024,407.412,141.726Z" transform="translate(-302.287 -95.637)" fill="#396caa"/><path d="M354.857,117.841A12.576,12.576,0,0,0,349,119.376l-11.382,6.571-35.32-.021v16.186a3.167,3.167,0,0,0,1.875,2.927l45.611,26.333a9.888,9.888,0,0,0,5.069,1.083Z" transform="translate(-302.287 -95.634)" fill="#396caa"/><path d="M306.3,123.286l-4,0v16.186a3.167,3.167,0,0,0,1.875,2.927l2.122,1.224Z" transform="translate(-302.287 -92.991)" fill="#5793ce"/><path d="M334.737,160.145a12.449,12.449,0,0,0,8.73-.1V141.668h-8.73Z" transform="translate(-286.532 -84.062)" fill="#5793ce"/><path d="M349.791,162.5,304.18,136.17c-2.8-1.616-2.448-4.439.784-6.305l44.042-25.427c3.231-1.867,8.122-2.07,10.921-.453l45.613,26.333c2.8,1.616,2.448,4.441-.784,6.307l-44.042,25.427C357.481,163.918,352.591,164.121,349.791,162.5Z" transform="translate(-302.29 -102.893)" fill="#d4ecff"/><path d="M404.756,124.156l-44.042,25.428c-3.233,1.866-8.122,2.068-10.923.452L304.18,123.7a4.211,4.211,0,0,1-1.4-1.241c-.963,1.548-.526,3.227,1.4,4.337l45.611,26.335c2.8,1.616,7.69,1.413,10.923-.453l44.042-25.427c2.511-1.45,3.274-3.476,2.181-5.066A6.118,6.118,0,0,1,404.756,124.156Z" transform="translate(-302.29 -93.523)" fill="#fff"/><g transform="translate(84.663 42.083)"><path d="M362.961,137.142a4.073,4.073,0,0,1-1.842,3.191c-1.016.587-1.842.11-1.842-1.064a4.074,4.074,0,0,1,1.842-3.191C362.137,135.49,362.961,135.967,362.961,137.142Z" transform="translate(-359.277 -128.982)" fill="#d4ecff"/><path d="M366.951,134.838a4.071,4.071,0,0,1-1.842,3.191c-1.018.587-1.842.111-1.842-1.064a4.073,4.073,0,0,1,1.842-3.191C366.127,133.187,366.951,133.663,366.951,134.838Z" transform="translate(-357.339 -130.101)" fill="#d4ecff"/><path d="M370.941,132.535a4.073,4.073,0,0,1-1.842,3.191c-1.018.587-1.842.11-1.842-1.064a4.071,4.071,0,0,1,1.842-3.191C370.117,130.883,370.941,131.36,370.941,132.535Z" transform="translate(-355.401 -131.219)" fill="#d4ecff"/></g><g transform="translate(27.97 15.389)"><path d="M343.346,141.147,322,128.825c-1.31-.756-1.145-2.078.367-2.952l20.609-11.9a5.68,5.68,0,0,1,5.111-.211l21.344,12.322c1.31.756,1.145,2.078-.367,2.952l-20.609,11.9A5.68,5.68,0,0,1,343.346,141.147Z" transform="translate(-321.117 -113.252)" fill="#5793ce"/><path d="M338.459,126.344l-2.952-1.7c-.181-.105-.159-.288.05-.409l2.851-1.646a.785.785,0,0,1,.707-.03l2.953,1.706c.181.1.157.287-.051.407l-2.852,1.648A.785.785,0,0,1,338.459,126.344Z" transform="translate(-314.187 -108.768)" fill="#d4ecff"/><path d="M322,128.825l.061.034c.1-.071.192-.144.306-.211l20.609-11.9a5.68,5.68,0,0,1,5.111-.212l21.285,12.289c1.206-.865,1.27-2.041.059-2.741l-21.344-12.322a5.68,5.68,0,0,0-5.111.211l-20.609,11.9C320.856,126.746,320.691,128.068,322,128.825Z" transform="translate(-321.117 -113.252)" fill="#396caa"/></g></g></g><g transform="translate(245.58 206.041)"><path d="M297.69,296.585c-8.966,5.176-23.5,5.176-32.469,0s-8.967-13.57,0-18.746,23.5-5.176,32.471,0S306.657,291.407,297.69,296.585Z" transform="translate(-239.308 -91.255)" fill="#c4d9e8" opacity="0.5"/><path d="M388.9,348.417c-8.966,5.178-23.5,5.176-32.469,0s-8.967-13.57,0-18.747,23.5-5.176,32.47,0S397.87,343.241,388.9,348.417Z" transform="translate(-195.01 -66.082)" fill="#c4d9e8" opacity="0.5"/><g transform="translate(0 0)"><path d="M264.185,162.044s.66,13.6,1.7,22.744,23.051-7.021,23.051-7.021V167.358Z" transform="translate(-236.544 -145.605)" fill="#11427b"/><g transform="translate(11.597 0.414)"><path d="M272.151,277.773c.331.826,6.035,7.77,11.74,9.507a13.127,13.127,0,0,0,5.24.724,1.727,1.727,0,0,0,1.4-2.3,21.665,21.665,0,0,0-10.943-12.064C269.918,268.844,272.151,277.773,272.151,277.773Z" transform="translate(-244.381 -92.509)" fill="#173d7a"/><path d="M273.407,277.754a47.209,47.209,0,0,1,2.811,9.26c.4,2.572-1.007,5.913-2.171,8.127a2.374,2.374,0,0,1-3.7.64,13.722,13.722,0,0,1-4.629-8.85c-.661-7.109,0-8.349,0-8.349Z" transform="translate(-247.539 -89.824)" fill="#173d7a"/><path d="M261.657,222.2a135.181,135.181,0,0,0,0,18.889c.744,9.921,3.407,56.315,3.9,67.476,0,0-.248,3.38,6.293,2.636s6.015-4.5,6.015-4.5,9.186-.123,9.475-5.539,9.409-64.663,9.409-85.965Z" transform="translate(-249.53 -120.202)" fill="#fdd762"/><path d="M283.044,188.753l5.3,32.4,4.821-.084-.443-29.693Z" transform="translate(-238.982 -133.048)" fill="#ffc2b0"/><path d="M281.549,169.44s7.15-.186,9.639,10.147,4.436,23.271,2.272,24.347c-6.5,3.227-10.611-.55-10.611-.55Z" transform="translate(-239.708 -142.427)" fill="#3199a7"/><path d="M295.3,169.88a5.847,5.847,0,0,0-3.86-.212c-6.091,1.75-28.994,8.471-32.769,11.7-4.36,3.728,6.54,24.674,6.382,31.542s-.93,14.964-1.538,22.429-1.428,11.56,4.678,14.733,16.534,3.322,24.338-2.625,6.388-10.016,6.064-14.334-2.983-22.989-2.753-28.29a20.039,20.039,0,0,0,4.787-5.5c2.037-3.475-1.56-9.86-3.055-14.013s.842-8.9.38-12.286A3.843,3.843,0,0,0,295.3,169.88Z" transform="translate(-251.319 -142.428)" fill="#4dd0e1"/><path d="M283.7,176.444c.484,3.772-2.977,7.324-7.73,7.932s-9-1.955-9.479-5.729,2.977-7.324,7.73-7.932S283.218,172.67,283.7,176.444Z" transform="translate(-247.042 -141.851)" fill="#fff"/><path d="M280.44,176.112c.346,2.7-2.128,5.235-5.525,5.671s-6.43-1.4-6.775-4.094,2.127-5.235,5.525-5.671S280.1,173.416,280.44,176.112Z" transform="translate(-246.236 -141.206)" fill="#ffc2b0"/><path d="M276.238,169.5s-4.135-3.4-4.946-1.677-1.483,9.113-1.483,9.113l8.211,2.2-1.246-7.488S278.418,170.261,276.238,169.5Z" transform="translate(-245.41 -143.448)" fill="#ffc2b0"/><circle cx="12.259" cy="12.259" r="12.259" transform="translate(14.191 19.137) rotate(-51.307)" fill="#ffc2b0"/><path d="M270.49,169.3c-.073.385-.143.8-.209,1.223.826,4.264,7.208,6.131,7.208,6.131l-.943-5.666s.774-.657.554-1.313C274.579,168.877,271.4,168.173,270.49,169.3Z" transform="translate(-245.181 -142.78)" fill="#ea9c92"/><circle cx="12.259" cy="12.259" r="12.259" transform="translate(14.191 19.137) rotate(-51.307)" fill="#ffc2b0"/><path d="M254.206,197.785l1.373,32.806,4.8.495,3.122-29.532Z" transform="translate(-252.988 -128.661)" fill="#ffc2b0"/><path d="M266.8,203.289c-1.588-7-4.723-22.482-4.723-22.482l-1.34,15.393c1.547,4.565,2.875,8.756,2.82,11.186-.094,4.031-.4,8.486-.758,12.988v.015S268.384,210.294,266.8,203.289Z" transform="translate(-249.817 -136.906)" fill="#3199a7"/><path d="M261.655,177.013s-3.836,1.465-6.007,13.245-3.793,23.58.076,25.1,7.1,2.665,8.241-.486,1.842-18.333,1.985-23.793S266.3,178.092,261.655,177.013Z" transform="translate(-253.386 -138.749)" fill="#4dd0e1"/><path d="M272.461,300.457a18.775,18.775,0,0,0,2.624-.272h0l1.8-72.118Z" transform="translate(-244.122 -113.954)" fill="#d8892b"/></g><g transform="translate(0 101.162)"><path d="M278.4,265.87l-2.552-3.332L249.012,247a3.732,3.732,0,0,1-1.555-2.98l.024-21.971-1.544-2.015,1.45-.839h0a.981.981,0,0,1,1.052.061l30.414,17.608a3.741,3.741,0,0,1,1.555,2.982l-.027,23.928a1.351,1.351,0,0,1-.569,1.275h0Z" transform="translate(-245.407 -219.072)" fill="#a5e6ef"/><path d="M259.841,253.272l-1.906-1.105-10.466-18.178.012-11.939-1.544-2.015,1.45-.839h0a.981.981,0,0,1,1.052.061l30.414,17.608A3.146,3.146,0,0,1,280,238.207Z" transform="translate(-245.407 -219.072)" fill="#a1dfe6"/><path d="M246.622,220.929l-.685-.894,1.45-.839h0a.981.981,0,0,1,1.052.061l.536.311Z" transform="translate(-245.407 -219.072)" fill="#d29fff"/><path d="M269.3,231.18a3.9,3.9,0,0,1,1.27,2.563l-2.973,1.716-1.423-2.474Z" transform="translate(-235.577 -213.191)" fill="#a1dfe6"/><path d="M277.579,237.432l-30.414-17.608c-.86-.5-1.558.028-1.56,1.177l-.025,23.926a3.733,3.733,0,0,0,1.555,2.982l30.413,17.608c.86.5,1.558-.028,1.56-1.177l.027-23.928A3.736,3.736,0,0,0,277.579,237.432Z" transform="translate(-245.58 -218.798)" fill="#3abacb"/></g><path d="M255.513,220.983s-1.267,7.657-1.077,10.11,1.5,6.5,2.5,6.412.033-9.862,1.783-8.889,1.933,2.644,2.726,2.055-1.382-8.947-.8-12.57S255.513,220.983,255.513,220.983Z" transform="translate(-241.288 -118.914)" fill="#ffc2b0"/><path d="M291.852,211.808s1.267,7.657,1.077,10.11-1.5,6.5-2.5,6.414-.033-9.863-1.783-8.889-1.933,2.643-2.726,2.053,1.382-8.947.8-12.57S291.852,211.808,291.852,211.808Z" transform="translate(-226.074 -123.37)" fill="#ffc2b0"/><path d="M280.594,165.675c6.149,2.184,7.347.851,7.406.78.056-.371.1-.746.123-1.128a12.231,12.231,0,0,0-.409-3.918l-15.954-2.153S274.278,163.432,280.594,165.675Z" transform="translate(-232.866 -146.959)" fill="#ea9c92"/><path d="M292.249,157.134c-1.45-1.242-6.68-7.385-16.05-5.935-5.855.906-10.79,4.9-11.885,14.013a20.943,20.943,0,0,0,5.666,16.657,5,5,0,0,0,.666-.337c2.347-1.544,2.6-2.393,2.6-2.4l.518-4.65a1.3,1.3,0,0,0-1.169-1.288,2.348,2.348,0,0,1-1.717-1.047c-1.345-1.76-.724-4.5,1.967-4.607A2.066,2.066,0,0,0,275,166.009a1.1,1.1,0,0,1,1.435-.747c3.062,1.108,10.606,3.5,15.463,2.122C298.106,165.623,293.7,158.376,292.249,157.134Z" transform="translate(-236.549 -150.979)" fill="#11427b"/><path d="M279.57,167.641l3.75-1.03s-1.79,2.815-4.4,3.534-3.02-1.495-3.02-1.495Z" transform="translate(-230.857 -143.387)" fill="#fff"/><path d="M260.492,226.641l-3.2-1.829,1.2,1.959,1.616.6Z" transform="translate(-239.89 -115.121)" fill="#d29fff"/></g></g><g transform="translate(303.55 252.429)"><path d="M329.661,341.629,293.236,320.6c-2.234-1.291-1.955-3.545.627-5.035l35.171-20.307c2.581-1.49,6.485-1.652,8.721-.361l36.425,21.029c2.236,1.291,1.955,3.546-.627,5.036l-35.17,20.306C335.8,342.758,331.9,342.92,329.661,341.629Z" transform="translate(-281.139 -127.896)" fill="#c4d9e8" opacity="0.5"/><g transform="translate(0 125.923)"><path d="M389.722,305.8h0V290.056l-35.289-.019-12.2-7.042c-2.8-1.616-7.688-1.414-10.921.453l-11.38,6.57L284.612,290v16.186a3.163,3.163,0,0,0,1.875,2.925L332.1,335.444c2.8,1.616,7.688,1.413,10.921-.453l44.042-25.427C388.928,308.487,389.828,307.094,389.722,305.8Z" transform="translate(-284.597 -259.706)" fill="#396caa"/><path d="M337.167,281.909a12.6,12.6,0,0,0-5.853,1.536l-11.38,6.57L284.612,290v16.186a3.163,3.163,0,0,0,1.875,2.925L332.1,335.442a9.878,9.878,0,0,0,5.068,1.083Z" transform="translate(-284.597 -259.703)" fill="#396caa"/><path d="M288.61,287.353h-4v16.186a3.164,3.164,0,0,0,1.875,2.925l2.123,1.226Z" transform="translate(-284.597 -257.06)" fill="#5793ce"/><path d="M317.047,324.215a12.442,12.442,0,0,0,8.73-.1V305.736h-8.73Z" transform="translate(-268.842 -248.131)" fill="#5793ce"/><path d="M332.1,326.572,286.49,300.239c-2.8-1.616-2.448-4.439.784-6.305l44.042-25.428c3.233-1.866,8.122-2.068,10.921-.453l45.613,26.335c2.8,1.616,2.448,4.439-.784,6.305l-44.042,25.429C339.791,327.987,334.9,328.189,332.1,326.572Z" transform="translate(-284.6 -266.962)" fill="#d4ecff"/><path d="M330.139,320.226l-38.223-22.068c-2.346-1.355-2.052-3.72.658-5.284l36.907-21.309c2.708-1.563,6.807-1.734,9.153-.379l38.223,22.068c2.346,1.355,2.052,3.72-.657,5.284l-36.908,21.309C336.583,321.41,332.484,321.581,330.139,320.226Z" transform="translate(-281.816 -265.355)" fill="#5793ce"/><g transform="translate(84.665 42.083)"><path d="M345.272,301.21a4.071,4.071,0,0,1-1.842,3.191c-1.018.588-1.842.111-1.842-1.064a4.073,4.073,0,0,1,1.842-3.191C344.448,299.559,345.272,300.035,345.272,301.21Z" transform="translate(-341.588 -293.051)" fill="#d4ecff"/><path d="M349.263,298.907a4.074,4.074,0,0,1-1.844,3.191c-1.016.587-1.842.111-1.842-1.064a4.075,4.075,0,0,1,1.842-3.191C348.437,297.255,349.263,297.732,349.263,298.907Z" transform="translate(-339.651 -294.17)" fill="#d4ecff"/><path d="M353.251,296.6a4.071,4.071,0,0,1-1.842,3.191c-1.018.588-1.842.111-1.842-1.064a4.07,4.07,0,0,1,1.842-3.19C352.427,294.952,353.251,295.429,353.251,296.6Z" transform="translate(-337.713 -295.288)" fill="#d4ecff"/></g></g><g transform="translate(0 100.773)"><path d="M389.722,288.866h0V273.128l-35.289-.019-12.2-7.044c-2.8-1.616-7.688-1.413-10.921.453l-11.38,6.571-35.322-.021v16.186a3.167,3.167,0,0,0,1.875,2.927L332.1,318.515c2.8,1.616,7.688,1.414,10.921-.453l44.042-25.427C388.928,291.558,389.828,290.164,389.722,288.866Z" transform="translate(-284.597 -242.777)" fill="#396caa"/><path d="M337.167,264.98a12.594,12.594,0,0,0-5.853,1.536l-11.38,6.571-35.322-.021v16.186a3.167,3.167,0,0,0,1.875,2.927L332.1,318.513a9.878,9.878,0,0,0,5.068,1.083Z" transform="translate(-284.597 -242.774)" fill="#396caa"/><path d="M288.61,270.426l-4,0v16.186a3.167,3.167,0,0,0,1.875,2.927l2.123,1.224Z" transform="translate(-284.597 -240.131)" fill="#5793ce"/><path d="M317.047,307.285a12.449,12.449,0,0,0,8.73-.1V288.808h-8.73Z" transform="translate(-268.842 -231.202)" fill="#5793ce"/><path d="M332.1,309.645,286.49,283.31c-2.8-1.616-2.448-4.439.784-6.305l44.042-25.428c3.233-1.866,8.122-2.068,10.921-.452l45.613,26.333c2.8,1.616,2.448,4.439-.784,6.307l-44.042,25.427C339.791,311.058,334.9,311.261,332.1,309.645Z" transform="translate(-284.6 -250.033)" fill="#d4ecff"/><path d="M330.139,303.3l-38.223-22.068c-2.346-1.353-2.052-3.72.658-5.284l36.907-21.309c2.708-1.563,6.807-1.732,9.153-.379l38.223,22.068c2.346,1.355,2.052,3.72-.657,5.284l-36.908,21.309C336.583,304.482,332.484,304.652,330.139,303.3Z" transform="translate(-281.816 -248.426)" fill="#5793ce"/><g transform="translate(84.665 42.083)"><path d="M345.272,284.282a4.07,4.07,0,0,1-1.842,3.19c-1.018.588-1.842.111-1.842-1.064a4.07,4.07,0,0,1,1.842-3.19C344.448,282.63,345.272,283.107,345.272,284.282Z" transform="translate(-341.588 -276.122)" fill="#d4ecff"/><path d="M349.263,281.978a4.074,4.074,0,0,1-1.844,3.191c-1.016.587-1.842.111-1.842-1.064a4.077,4.077,0,0,1,1.842-3.191C348.437,280.327,349.263,280.8,349.263,281.978Z" transform="translate(-339.651 -277.241)" fill="#d4ecff"/><path d="M353.251,279.675a4.07,4.07,0,0,1-1.842,3.19c-1.018.588-1.842.111-1.842-1.064a4.07,4.07,0,0,1,1.842-3.19C352.427,278.023,353.251,278.5,353.251,279.675Z" transform="translate(-337.713 -278.359)" fill="#d4ecff"/></g></g><g transform="translate(0 75.623)"><path d="M389.722,271.937h0V256.2l-35.289-.019-12.2-7.042c-2.8-1.616-7.688-1.414-10.921.452l-11.38,6.571-35.322-.019v16.185a3.165,3.165,0,0,0,1.875,2.927L332.1,301.586c2.8,1.616,7.688,1.414,10.921-.452l44.042-25.428C388.928,274.63,389.828,273.235,389.722,271.937Z" transform="translate(-284.597 -225.848)" fill="#396caa"/><path d="M337.167,248.052a12.594,12.594,0,0,0-5.853,1.535l-11.38,6.571-35.322-.019v16.185a3.165,3.165,0,0,0,1.875,2.927L332.1,301.583a9.878,9.878,0,0,0,5.068,1.083Z" transform="translate(-284.597 -225.845)" fill="#396caa"/><path d="M288.61,253.5h-4V269.68a3.165,3.165,0,0,0,1.875,2.927l2.123,1.224Z" transform="translate(-284.597 -223.202)" fill="#5793ce"/><path d="M317.047,290.356a12.441,12.441,0,0,0,8.73-.1V271.879h-8.73Z" transform="translate(-268.842 -214.274)" fill="#5793ce"/><path d="M332.1,292.716,286.49,266.382c-2.8-1.616-2.448-4.441.784-6.307l44.042-25.427c3.233-1.866,8.122-2.07,10.921-.453L387.85,260.53c2.8,1.615,2.448,4.439-.784,6.305l-44.042,25.427C339.791,294.13,334.9,294.332,332.1,292.716Z" transform="translate(-284.6 -233.105)" fill="#d4ecff"/><path d="M330.139,286.369,291.916,264.3c-2.346-1.353-2.052-3.72.658-5.283l36.907-21.309c2.708-1.564,6.807-1.734,9.153-.38L376.857,259.4c2.346,1.353,2.052,3.72-.657,5.283l-36.908,21.309C336.583,287.553,332.484,287.723,330.139,286.369Z" transform="translate(-281.816 -231.498)" fill="#5793ce"/><g transform="translate(84.665 42.083)"><path d="M345.272,267.353a4.073,4.073,0,0,1-1.842,3.191c-1.018.587-1.842.111-1.842-1.064a4.07,4.07,0,0,1,1.842-3.191C344.448,265.7,345.272,266.178,345.272,267.353Z" transform="translate(-341.588 -259.193)" fill="#d4ecff"/><path d="M349.263,265.049a4.072,4.072,0,0,1-1.844,3.191c-1.016.588-1.842.111-1.842-1.064a4.074,4.074,0,0,1,1.842-3.19C348.437,263.4,349.263,263.875,349.263,265.049Z" transform="translate(-339.651 -260.312)" fill="#d4ecff"/><path d="M353.251,262.746a4.073,4.073,0,0,1-1.842,3.191c-1.018.587-1.842.111-1.842-1.064a4.07,4.07,0,0,1,1.842-3.191C352.427,261.1,353.251,261.571,353.251,262.746Z" transform="translate(-337.713 -261.431)" fill="#d4ecff"/></g></g><g transform="translate(0 50.472)"><path d="M389.722,255.009h0V239.27l-35.289-.019-12.2-7.042c-2.8-1.616-7.688-1.414-10.921.453l-11.38,6.57-35.322-.019V255.4a3.165,3.165,0,0,0,1.875,2.925L332.1,284.658c2.8,1.616,7.688,1.413,10.921-.453l44.042-25.427C388.928,257.7,389.828,256.306,389.722,255.009Z" transform="translate(-284.597 -208.919)" fill="#396caa"/><path d="M337.167,231.123a12.577,12.577,0,0,0-5.853,1.536l-11.38,6.57-35.322-.019V255.4a3.165,3.165,0,0,0,1.875,2.925L332.1,284.656a9.893,9.893,0,0,0,5.068,1.083Z" transform="translate(-284.597 -208.916)" fill="#396caa"/><path d="M288.61,236.568l-4,0v16.186a3.165,3.165,0,0,0,1.875,2.925l2.123,1.226Z" transform="translate(-284.597 -206.273)" fill="#5793ce"/><path d="M317.047,273.427a12.432,12.432,0,0,0,8.73-.1V254.95h-8.73Z" transform="translate(-268.842 -197.345)" fill="#5793ce"/><path d="M332.1,275.787,286.49,249.453c-2.8-1.616-2.448-4.439.784-6.305l44.042-25.428c3.233-1.866,8.122-2.07,10.921-.453L387.85,243.6c2.8,1.616,2.448,4.439-.784,6.305l-44.042,25.428C339.791,277.2,334.9,277.4,332.1,275.787Z" transform="translate(-284.6 -216.176)" fill="#d4ecff"/><path d="M330.139,269.44l-38.223-22.068c-2.346-1.355-2.052-3.72.658-5.284l36.907-21.309c2.708-1.564,6.807-1.734,9.153-.379l38.223,22.068c2.346,1.355,2.052,3.72-.657,5.284l-36.908,21.309C336.583,270.624,332.484,270.8,330.139,269.44Z" transform="translate(-281.816 -214.568)" fill="#5793ce"/><g transform="translate(84.665 42.083)"><path d="M345.272,250.424a4.073,4.073,0,0,1-1.842,3.191c-1.018.587-1.842.111-1.842-1.064a4.073,4.073,0,0,1,1.842-3.191C344.448,248.773,345.272,249.249,345.272,250.424Z" transform="translate(-341.588 -242.264)" fill="#d4ecff"/><path d="M349.263,248.121a4.072,4.072,0,0,1-1.844,3.19c-1.016.588-1.842.111-1.842-1.062a4.074,4.074,0,0,1,1.842-3.191C348.437,246.469,349.263,246.946,349.263,248.121Z" transform="translate(-339.651 -243.383)" fill="#d4ecff"/><path d="M353.251,245.817a4.071,4.071,0,0,1-1.842,3.191c-1.018.587-1.842.111-1.842-1.064a4.073,4.073,0,0,1,1.842-3.191C352.427,244.166,353.251,244.642,353.251,245.817Z" transform="translate(-337.713 -244.502)" fill="#d4ecff"/></g></g><g transform="translate(0 25.322)"><path d="M389.722,238.08h0V222.342l-35.289-.021-12.2-7.042c-2.8-1.616-7.688-1.413-10.921.453l-11.38,6.57-35.322-.019v16.186a3.163,3.163,0,0,0,1.875,2.925L332.1,267.729c2.8,1.616,7.688,1.413,10.921-.453l44.042-25.427C388.928,240.772,389.828,239.378,389.722,238.08Z" transform="translate(-284.597 -191.991)" fill="#396caa"/><path d="M337.167,214.194a12.6,12.6,0,0,0-5.853,1.536l-11.38,6.57-35.322-.019v16.186a3.163,3.163,0,0,0,1.875,2.925L332.1,267.727a9.878,9.878,0,0,0,5.068,1.083Z" transform="translate(-284.597 -191.988)" fill="#396caa"/><path d="M288.61,219.64l-4,0v16.186a3.163,3.163,0,0,0,1.875,2.925l2.123,1.226Z" transform="translate(-284.597 -189.345)" fill="#5793ce"/><path d="M317.047,256.5a12.442,12.442,0,0,0,8.73-.1V238.021h-8.73Z" transform="translate(-268.842 -180.416)" fill="#5793ce"/><path d="M332.1,258.859,286.49,232.524c-2.8-1.616-2.448-4.439.784-6.305l44.042-25.428c3.233-1.866,8.122-2.068,10.921-.453l45.613,26.335c2.8,1.616,2.448,4.439-.784,6.305l-44.042,25.428C339.791,260.272,334.9,260.475,332.1,258.859Z" transform="translate(-284.6 -199.247)" fill="#d4ecff"/><path d="M330.139,252.511l-38.223-22.068c-2.346-1.355-2.052-3.72.658-5.284L329.48,203.85c2.708-1.563,6.807-1.734,9.153-.379l38.223,22.068c2.346,1.355,2.052,3.72-.657,5.284l-36.908,21.309C336.583,253.7,332.484,253.866,330.139,252.511Z" transform="translate(-281.816 -197.64)" fill="#5793ce"/><g transform="translate(68.168 42.083)"><rect width="21.128" height="0.744" transform="matrix(0.866, -0.499, 0.499, 0.866, 0, 19.655)" fill="#fff"/><path d="M345.272,233.495a4.071,4.071,0,0,1-1.842,3.191c-1.018.588-1.842.111-1.842-1.064a4.07,4.07,0,0,1,1.842-3.19C344.448,231.844,345.272,232.321,345.272,233.495Z" transform="translate(-325.091 -225.336)" fill="#d4ecff"/><path d="M349.263,231.192a4.074,4.074,0,0,1-1.844,3.191c-1.016.587-1.842.111-1.842-1.064a4.074,4.074,0,0,1,1.842-3.191C348.437,229.541,349.263,230.017,349.263,231.192Z" transform="translate(-323.154 -226.455)" fill="#d4ecff"/><path d="M353.251,228.889a4.07,4.07,0,0,1-1.842,3.19c-1.018.588-1.842.111-1.842-1.064a4.07,4.07,0,0,1,1.842-3.19C352.427,227.237,353.251,227.714,353.251,228.889Z" transform="translate(-321.216 -227.573)" fill="#d4ecff"/></g></g><path d="M389.722,221.035h0V205.3l-35.289-.019-12.2-7.043c-2.8-1.615-7.688-1.413-10.921.453l-11.38,6.571-35.322-.019v16.185a3.167,3.167,0,0,0,1.875,2.927L332.1,250.684c2.8,1.616,7.688,1.414,10.921-.452L387.063,224.8C388.928,223.728,389.828,222.333,389.722,221.035Z" transform="translate(-284.597 -174.946)" fill="#396caa"/><path d="M337.167,197.15a12.594,12.594,0,0,0-5.853,1.535l-11.38,6.571-35.322-.019v16.185a3.167,3.167,0,0,0,1.875,2.927L332.1,250.681a9.878,9.878,0,0,0,5.068,1.083Z" transform="translate(-284.597 -174.943)" fill="#396caa"/><path d="M288.61,202.594h-4v16.185a3.167,3.167,0,0,0,1.875,2.927l2.123,1.224Z" transform="translate(-284.597 -172.3)" fill="#5793ce"/><path d="M317.047,239.454a12.441,12.441,0,0,0,8.73-.1V220.977h-8.73Z" transform="translate(-268.842 -163.372)" fill="#5793ce"/><path d="M332.1,241.814,286.49,215.479c-2.8-1.615-2.448-4.439.784-6.305l44.042-25.427c3.233-1.866,8.122-2.07,10.921-.453l45.613,26.335c2.8,1.615,2.448,4.439-.784,6.305L343.023,241.36C339.791,243.228,334.9,243.43,332.1,241.814Z" transform="translate(-284.6 -182.203)" fill="#d4ecff"/><path d="M387.065,203.465l-44.042,25.428c-3.233,1.866-8.122,2.068-10.921.452L286.49,203.012a4.224,4.224,0,0,1-1.4-1.239c-.961,1.547-.526,3.225,1.4,4.335L332.1,232.443c2.8,1.616,7.688,1.413,10.921-.453l44.042-25.427c2.512-1.45,3.274-3.476,2.181-5.066A6.092,6.092,0,0,1,387.065,203.465Z" transform="translate(-284.6 -172.832)" fill="#fff"/><g transform="translate(66.511 42.082)"><path d="M345.272,216.451a4.073,4.073,0,0,1-1.842,3.191c-1.018.587-1.842.111-1.842-1.064a4.071,4.071,0,0,1,1.842-3.191C344.448,214.8,345.272,215.276,345.272,216.451Z" transform="translate(-323.435 -208.291)" fill="#d4ecff"/><path d="M333.053,223.167a4.073,4.073,0,0,1-1.842,3.191c-1.018.587-1.842.111-1.842-1.064a4.073,4.073,0,0,1,1.842-3.191C332.229,221.516,333.053,221.992,333.053,223.167Z" transform="translate(-329.369 -205.029)" fill="#d4ecff"/><path d="M333.053,240.734a4.07,4.07,0,0,1-1.842,3.19c-1.018.588-1.842.111-1.842-1.062a4.071,4.071,0,0,1,1.842-3.191C332.229,239.082,333.053,239.559,333.053,240.734Z" transform="translate(-329.369 -196.498)" fill="#fff"/><path d="M349.263,214.147a4.072,4.072,0,0,1-1.844,3.191c-1.016.588-1.842.111-1.842-1.064a4.077,4.077,0,0,1,1.842-3.191C348.437,212.5,349.263,212.972,349.263,214.147Z" transform="translate(-321.497 -209.41)" fill="#d4ecff"/><path d="M353.251,211.844a4.073,4.073,0,0,1-1.842,3.191c-1.018.587-1.842.111-1.842-1.064a4.071,4.071,0,0,1,1.842-3.191C352.427,210.192,353.251,210.669,353.251,211.844Z" transform="translate(-319.56 -210.528)" fill="#d4ecff"/></g><g transform="translate(27.971 15.389)"><path d="M325.655,220.456l-21.344-12.322c-1.309-.756-1.145-2.077.367-2.951l20.61-11.9a5.684,5.684,0,0,1,5.111-.211L351.743,205.4c1.309.756,1.145,2.077-.367,2.951l-20.61,11.9A5.68,5.68,0,0,1,325.655,220.456Z" transform="translate(-303.427 -192.561)" fill="#5793ce"/><path d="M320.771,205.653l-2.953-1.7c-.181-.105-.159-.288.05-.409l2.851-1.646a.79.79,0,0,1,.707-.03l2.953,1.706c.181.1.159.287-.051.407l-2.851,1.648A.785.785,0,0,1,320.771,205.653Z" transform="translate(-296.498 -188.077)" fill="#d4ecff"/><path d="M304.311,208.133l.061.034c.1-.071.192-.144.306-.211l20.61-11.9a5.675,5.675,0,0,1,5.111-.211l21.284,12.288c1.208-.865,1.27-2.041.061-2.74L330.4,193.072a5.684,5.684,0,0,0-5.111.211l-20.61,11.9C303.165,206.057,303,207.377,304.311,208.133Z" transform="translate(-303.427 -192.561)" fill="#396caa"/></g></g><g transform="translate(371.362 279.066)"><path d="M385.814,329.783a6.94,6.94,0,0,1,3.916,6.939,11.7,11.7,0,0,1-.57,3.392c-.807,1.692-3.448,4.013-7.663,2.347s-13.579-10.462-13.93-16.22C366.916,315.544,379.146,326.935,385.814,329.783Z" transform="translate(-312.13 -141.068)" fill="#173d7a"/><path d="M372.082,341.726s1.012,6.167.52,7.3-3.424,3.543-7.76,3.02-16.8-4.821-19.582-13.04c-4.305-12.741,24.072.957,24.072.957Z" transform="translate(-323.167 -135.322)" fill="#173d7a"/><path d="M355.282,274.566l-.964,96.27c.1,3.349,2.294,6.176,5.243,6.674.365.061.755.111,1.172.149a5.994,5.994,0,0,0,5.72-2.367,7.061,7.061,0,0,0,1.287-3.886l1.23-41.1,6.134-36.745,8.489,65.033a5.619,5.619,0,0,0,2.332,4.282,6.507,6.507,0,0,0,3.87,1.05,7.121,7.121,0,0,0,5.146-2.535,5.161,5.161,0,0,0,1.229-3.482l-3.365-39.129-1.252-49.909Z" transform="translate(-318.552 -166.747)" fill="#fdd762"/><path d="M388.194,262.019a3.539,3.539,0,0,1-.53-.04L372.286,259.6a3.459,3.459,0,0,1,1.059-6.836l10.612,1.643-3.622-20.741a3.458,3.458,0,0,1,6.813-1.19l4.451,25.492a3.455,3.455,0,0,1-3.405,4.054Z" transform="translate(-311.249 -185.818)" fill="#ffc2b0"/><path d="M372.584,218.31s5.139-.3,11.765,13.344-2.448,17.954-2.448,17.954Z" transform="translate(-309.681 -191.304)" fill="#3bb3c3"/><path d="M368.413,222.01c.232-.1,14.179-9.074,19.334.324,8.406,15.323,7.911,64.65,5.256,71.038-2.456,5.914-8.59,10.273-12.888,12.729a25.75,25.75,0,0,1-12.511,3.56c-4.357.034-12.716-3.84-12.413-9.538,1.4-26.2-.921-48.293-3.06-69.726C352.132,230.4,354.806,227.519,368.413,222.01Z" transform="translate(-319.614 -191.43)" fill="#4dd0e1"/><g transform="translate(4.821 51.559)"><path d="M355.465,267.369a2.955,2.955,0,0,0,1.162-.3,3.623,3.623,0,0,0,1.925-2.765l6.632-19.334c.3-2-3.19-9.785-4.968-10.114s-6.287,3.2-6.581,5.2L352,257.332l-13.854-4.507c-1.7-.894-3.1-2.714-4.108-1.033a3.95,3.95,0,0,0,.891,5.085l18.58,9.874A3.005,3.005,0,0,0,355.465,267.369Z" transform="translate(-333.489 -234.836)" fill="#ffc2b0"/></g><path d="M338.654,249.614l-1.033-2.518a6.676,6.676,0,0,0-1.654-2.379l-4.316-3.98a.841.841,0,0,0-1.242.114h0a.84.84,0,0,0,.055,1.07l1.8,1.961a1.169,1.169,0,0,1,.241,1.184l-.688,1.925a1.94,1.94,0,0,0,.331,1.888l4.328,5.244Z" transform="translate(-330.244 -180.519)" fill="#ffc2b0"/><path d="M355.643,226.36s-9.311,7.176-10.74,29.021c0,0-.2,2.422,5.177,3.876s9.058-2.71,9.058-2.71A34.443,34.443,0,0,0,355.643,226.36Z" transform="translate(-323.125 -187.394)" fill="#4dd0e1"/><path d="M366.452,215.031l1.523,8.773a4.019,4.019,0,0,1-3.285,3.821c-3.343.83-4.375-1.328-4.375-1.328l-1.512-9.878Z" transform="translate(-316.375 -192.896)" fill="#ffc2b0"/><path d="M352.374,221.743c3.615,7,11.59,10.055,17.814,6.816s8.341-11.541,4.727-18.544S363.326,199.96,357.1,203.2,348.76,214.739,352.374,221.743Z" transform="translate(-320.353 -199.271)" fill="#ffc2b0"/><path d="M362.663,221.289a1.635,1.635,0,0,1-1.434-.455c-.652-.666-.921-4.2-2.627-4.493-2.668-.464-8.089,3.71-10.288-5.249-1.142-4.655.935-6.3.48-8.883,0,0,.025,1.33,12.012-1.566s17.785,7.194,18.956,12.273.141,13.94-7.947,16.525c-1.342.429-7.913-3.218-7.868-3.852s2.229-.975,1.609-2.692A2.314,2.314,0,0,0,362.663,221.289Z" transform="translate(-321.637 -200.132)" fill="#11427b"/><path d="M368.309,285.493l8.489,65.033a5.619,5.619,0,0,0,2.332,4.282,6.236,6.236,0,0,0,.725.41c-1.762-1.322-6.907-55.908-7.859-61.979S368.309,285.493,368.309,285.493Z" transform="translate(-311.758 -158.676)" fill="#d8892b"/></g><g transform="translate(612.832 343.278)"><path d="M347.352,211.418l-36.425-21.029c-2.236-1.291-1.955-3.545.625-5.036l35.171-20.306c2.582-1.49,6.486-1.652,8.722-.361l36.425,21.029c2.234,1.291,1.955,3.546-.627,5.036l-35.171,20.306C353.492,212.547,349.586,212.709,347.352,211.418Z" transform="translate(-298.829 -73.307)" fill="#c4d9e8" opacity="0.5"/><g transform="translate(0 50.3)"><path d="M407.412,175.584h0V159.845l-35.29-.019-12.2-7.042c-2.8-1.616-7.69-1.414-10.921.452l-11.382,6.571-35.32-.019v16.185a3.165,3.165,0,0,0,1.875,2.927l45.611,26.335c2.8,1.616,7.69,1.413,10.923-.453l44.042-25.428C406.618,178.276,407.516,176.881,407.412,175.584Z" transform="translate(-302.287 -129.494)" fill="#396caa"/><path d="M354.857,151.7A12.594,12.594,0,0,0,349,153.233L337.622,159.8l-35.32-.019v16.185a3.165,3.165,0,0,0,1.875,2.927l45.611,26.335a9.918,9.918,0,0,0,5.069,1.083Z" transform="translate(-302.287 -129.491)" fill="#396caa"/><path d="M306.3,157.142h-4v16.185a3.165,3.165,0,0,0,1.875,2.927l2.122,1.226Z" transform="translate(-302.287 -126.848)" fill="#5793ce"/><path d="M334.737,194a12.433,12.433,0,0,0,8.73-.1V175.525h-8.73Z" transform="translate(-286.532 -117.92)" fill="#5793ce"/><path d="M349.791,196.362,304.18,170.028c-2.8-1.616-2.448-4.439.784-6.305l44.042-25.428c3.231-1.866,8.122-2.07,10.921-.453l45.613,26.335c2.8,1.616,2.448,4.439-.784,6.305L360.713,195.91C357.481,197.776,352.591,197.978,349.791,196.362Z" transform="translate(-302.29 -136.751)" fill="#d4ecff"/><path d="M347.829,190.015l-38.223-22.068c-2.346-1.355-2.052-3.72.657-5.284l36.908-21.309c2.708-1.564,6.806-1.734,9.152-.379l38.224,22.068c2.346,1.355,2.052,3.72-.658,5.284l-36.907,21.309C354.272,191.2,350.174,191.37,347.829,190.015Z" transform="translate(-299.506 -135.143)" fill="#5793ce"/><g transform="translate(84.663 42.083)"><path d="M362.961,171a4.07,4.07,0,0,1-1.842,3.191c-1.016.587-1.842.111-1.842-1.064a4.077,4.077,0,0,1,1.842-3.191C362.137,169.348,362.961,169.824,362.961,171Z" transform="translate(-359.277 -162.839)" fill="#d4ecff"/><path d="M366.951,168.7a4.073,4.073,0,0,1-1.842,3.191c-1.018.587-1.842.11-1.842-1.064a4.071,4.071,0,0,1,1.842-3.191C366.127,167.044,366.951,167.521,366.951,168.7Z" transform="translate(-357.339 -163.958)" fill="#d4ecff"/><path d="M370.941,166.392a4.071,4.071,0,0,1-1.842,3.191c-1.018.587-1.842.111-1.842-1.064a4.073,4.073,0,0,1,1.842-3.191C370.117,164.741,370.941,165.217,370.941,166.392Z" transform="translate(-355.401 -165.077)" fill="#d4ecff"/></g></g><g transform="translate(0 25.151)"><path d="M407.412,158.655h0V142.917l-35.29-.021-12.2-7.042c-2.8-1.616-7.69-1.413-10.921.453l-11.382,6.57-35.32-.019v16.186a3.163,3.163,0,0,0,1.875,2.925L349.788,188.3c2.8,1.616,7.69,1.413,10.923-.453l44.042-25.427C406.618,161.347,407.516,159.953,407.412,158.655Z" transform="translate(-302.287 -112.566)" fill="#396caa"/><path d="M354.857,134.769A12.6,12.6,0,0,0,349,136.305l-11.382,6.57-35.32-.019v16.186a3.163,3.163,0,0,0,1.875,2.925L349.788,188.3a9.888,9.888,0,0,0,5.069,1.083Z" transform="translate(-302.287 -112.563)" fill="#396caa"/><path d="M306.3,140.215l-4,0V156.4a3.163,3.163,0,0,0,1.875,2.925l2.122,1.226Z" transform="translate(-302.287 -109.92)" fill="#5793ce"/><path d="M334.737,177.075a12.449,12.449,0,0,0,8.73-.1V158.6h-8.73Z" transform="translate(-286.532 -100.992)" fill="#5793ce"/><path d="M349.791,179.434,304.18,153.1c-2.8-1.616-2.448-4.439.784-6.305l44.042-25.428c3.231-1.866,8.122-2.068,10.921-.452l45.613,26.333c2.8,1.616,2.448,4.439-.784,6.305l-44.042,25.428C357.481,180.847,352.591,181.049,349.791,179.434Z" transform="translate(-302.29 -119.822)" fill="#d4ecff"/><path d="M347.829,173.086l-38.223-22.068c-2.346-1.355-2.052-3.72.657-5.284l36.908-21.309c2.708-1.563,6.806-1.734,9.152-.379l38.224,22.068c2.346,1.355,2.052,3.72-.658,5.284l-36.907,21.309C354.272,174.271,350.174,174.441,347.829,173.086Z" transform="translate(-299.506 -118.215)" fill="#5793ce"/><g transform="translate(84.663 42.083)"><path d="M362.961,154.07a4.07,4.07,0,0,1-1.842,3.191c-1.016.588-1.842.111-1.842-1.064a4.074,4.074,0,0,1,1.842-3.19C362.137,152.419,362.961,152.9,362.961,154.07Z" transform="translate(-359.277 -145.911)" fill="#d4ecff"/><path d="M366.951,151.767a4.073,4.073,0,0,1-1.842,3.191c-1.018.587-1.842.111-1.842-1.064a4.071,4.071,0,0,1,1.842-3.191C366.127,150.116,366.951,150.592,366.951,151.767Z" transform="translate(-357.339 -147.03)" fill="#d4ecff"/><path d="M370.941,149.463a4.071,4.071,0,0,1-1.842,3.191c-1.018.588-1.842.111-1.842-1.064a4.07,4.07,0,0,1,1.842-3.19C370.117,147.812,370.941,148.289,370.941,149.463Z" transform="translate(-355.401 -148.148)" fill="#d4ecff"/></g></g><g transform="translate(0 0)"><path d="M407.412,141.726h0V125.988l-35.29-.019-12.2-7.043c-2.8-1.616-7.69-1.413-10.921.453l-11.382,6.571-35.32-.021v16.186a3.167,3.167,0,0,0,1.875,2.927l45.611,26.333c2.8,1.616,7.69,1.414,10.923-.453L404.753,145.5C406.618,144.418,407.516,143.024,407.412,141.726Z" transform="translate(-302.287 -95.637)" fill="#396caa"/><path d="M354.857,117.841A12.576,12.576,0,0,0,349,119.376l-11.382,6.571-35.32-.021v16.186a3.167,3.167,0,0,0,1.875,2.927l45.611,26.333a9.888,9.888,0,0,0,5.069,1.083Z" transform="translate(-302.287 -95.634)" fill="#396caa"/><path d="M306.3,123.286l-4,0v16.186a3.167,3.167,0,0,0,1.875,2.927l2.122,1.224Z" transform="translate(-302.287 -92.991)" fill="#5793ce"/><path d="M334.737,160.145a12.449,12.449,0,0,0,8.73-.1V141.668h-8.73Z" transform="translate(-286.532 -84.062)" fill="#5793ce"/><path d="M349.791,162.5,304.18,136.17c-2.8-1.616-2.448-4.439.784-6.305l44.042-25.427c3.231-1.867,8.122-2.07,10.921-.453l45.613,26.333c2.8,1.616,2.448,4.441-.784,6.307l-44.042,25.427C357.481,163.918,352.591,164.121,349.791,162.5Z" transform="translate(-302.29 -102.893)" fill="#d4ecff"/><path d="M404.756,124.156l-44.042,25.428c-3.233,1.866-8.122,2.068-10.923.452L304.18,123.7a4.211,4.211,0,0,1-1.4-1.241c-.963,1.548-.526,3.227,1.4,4.337l45.611,26.335c2.8,1.616,7.69,1.413,10.923-.453l44.042-25.427c2.511-1.45,3.274-3.476,2.181-5.066A6.118,6.118,0,0,1,404.756,124.156Z" transform="translate(-302.29 -93.523)" fill="#fff"/><g transform="translate(84.663 42.083)"><path d="M362.961,137.142a4.073,4.073,0,0,1-1.842,3.191c-1.016.587-1.842.11-1.842-1.064a4.074,4.074,0,0,1,1.842-3.191C362.137,135.49,362.961,135.967,362.961,137.142Z" transform="translate(-359.277 -128.982)" fill="#d4ecff"/><path d="M366.951,134.838a4.071,4.071,0,0,1-1.842,3.191c-1.018.587-1.842.111-1.842-1.064a4.073,4.073,0,0,1,1.842-3.191C366.127,133.187,366.951,133.663,366.951,134.838Z" transform="translate(-357.339 -130.101)" fill="#d4ecff"/><path d="M370.941,132.535a4.073,4.073,0,0,1-1.842,3.191c-1.018.587-1.842.11-1.842-1.064a4.071,4.071,0,0,1,1.842-3.191C370.117,130.883,370.941,131.36,370.941,132.535Z" transform="translate(-355.401 -131.219)" fill="#d4ecff"/></g><g transform="translate(27.97 15.389)"><path d="M343.346,141.147,322,128.825c-1.31-.756-1.145-2.078.367-2.952l20.609-11.9a5.68,5.68,0,0,1,5.111-.211l21.344,12.322c1.31.756,1.145,2.078-.367,2.952l-20.609,11.9A5.68,5.68,0,0,1,343.346,141.147Z" transform="translate(-321.117 -113.252)" fill="#5793ce"/><path d="M338.459,126.344l-2.952-1.7c-.181-.105-.159-.288.05-.409l2.851-1.646a.785.785,0,0,1,.707-.03l2.953,1.706c.181.1.157.287-.051.407l-2.852,1.648A.785.785,0,0,1,338.459,126.344Z" transform="translate(-314.187 -108.768)" fill="#d4ecff"/><path d="M322,128.825l.061.034c.1-.071.192-.144.306-.211l20.609-11.9a5.68,5.68,0,0,1,5.111-.212l21.285,12.289c1.206-.865,1.27-2.041.059-2.741l-21.344-12.322a5.68,5.68,0,0,0-5.111.211l-20.609,11.9C320.856,126.746,320.691,128.068,322,128.825Z" transform="translate(-321.117 -113.252)" fill="#396caa"/></g></g></g><g transform="translate(598.621 266.84)"><g transform="translate(3.392)"><path d="M456.547,322.732s-4.5-2.272-7.271,1.111-6.721,11.367-6.844,16.763,4.27,5.03,6.882,3.754,10.238-12.341,10.7-14.509-.545-5.1-1.279-5.672S456.547,322.732,456.547,322.732Z" transform="translate(-425.412 -135.321)" fill="#173d7a"/><path d="M455.381,322.109l.208,4.668a2.648,2.648,0,0,1-1.318,2.428,5.2,5.2,0,0,1-3.475.539c-3.393-.545-3.7-1.514-3.938-6.18S455.381,322.109,455.381,322.109Z" transform="translate(-423.264 -135.784)" fill="#e8a200"/><g transform="translate(0 82.796)"><path d="M445.448,316.692s-4.5-2.272-7.271,1.111-6.721,11.367-6.843,16.763,4.27,5.03,6.88,3.754,10.239-12.341,10.7-14.509-.544-5.1-1.278-5.672S445.448,316.692,445.448,316.692Z" transform="translate(-430.802 -221.05)" fill="#173d7a"/><path d="M444.283,316.069l.208,4.668a2.646,2.646,0,0,1-1.319,2.428,5.2,5.2,0,0,1-3.475.539c-3.393-.545-3.695-1.514-3.938-6.18S444.283,316.069,444.283,316.069Z" transform="translate(-428.654 -221.513)" fill="#e8a200"/><path d="M486.8,260.949c-1.333-21.694-23.493,3.191-23.493,3.191l-15.166,14.865-13.658,15a13.463,13.463,0,0,0-3.392,10.814l5.525,42.068a4.132,4.132,0,0,0,4.145,3.592,14.12,14.12,0,0,0,2.047-.178,5.139,5.139,0,0,0,4.564-5.454l-1.01-39.345,28.682-17.29S488.13,282.641,486.8,260.949Z" transform="translate(-430.975 -252.071)" fill="#fdd762"/></g><path d="M497.9,266.512C496.562,244.82,474.4,269.7,474.4,269.7l-15.167,14.866-13.656,15a13.458,13.458,0,0,0-3.392,10.814l5.524,42.068a4.136,4.136,0,0,0,4.146,3.594,14.319,14.319,0,0,0,2.046-.18,5.141,5.141,0,0,0,4.565-5.454l-1.01-39.345,28.681-17.29S499.229,288.2,497.9,266.512Z" transform="translate(-425.585 -166.573)" fill="#fdd762"/><path d="M481.419,217.528c16.8,6.966,16.463,16.9,16.463,16.9s-3.291,36.407-2.168,60.722c.469,10.163-54,10.939-45.88-16.177,9.578-31.974,5.989-57.859,10.472-61.762S477.074,215.727,481.419,217.528Z" transform="translate(-422.217 -187.223)" fill="#4dd0e1"/><path d="M480,225.512c-.88,3.411-5.348,5.209-9.982,4.016s-7.679-4.926-6.8-8.337,5.347-5.209,9.982-4.016S480.875,222.1,480,225.512Z" transform="translate(-415.391 -186.402)" fill="#ffc2b0"/><path d="M473.142,230.961a12.366,12.366,0,0,1-3.065-.394c-5.056-1.3-8.364-5.482-7.378-9.317s5.905-5.9,10.96-4.592a11.181,11.181,0,0,1,5.891,3.607,6.073,6.073,0,0,1-2.575,9.987A10.265,10.265,0,0,1,473.142,230.961Zm-2.558-13.092c-3.12,0-5.729,1.45-6.329,3.783-.767,2.977,2.025,6.277,6.222,7.36a9.562,9.562,0,0,0,5.9-.25,4.866,4.866,0,0,0,3.1-3.19h0a4.86,4.86,0,0,0-1.177-4.291,9.557,9.557,0,0,0-5.047-3.068A10.787,10.787,0,0,0,470.583,217.87Z" transform="translate(-415.652 -186.663)" fill="#fff"/><path d="M466.338,217.323a41.675,41.675,0,0,1-.146,6c-.092,1.674,5.769,3.237,7.283,1.722s.909-3.09,1.273-8.785S466.338,217.323,466.338,217.323Z" transform="translate(-413.872 -187.776)" fill="#ffc2b0"/><path d="M474.748,215.512s-1.444,5.28-8.557,7.306l.108-4.8Z" transform="translate(-413.872 -187.03)" fill="#ea9c92"/><circle cx="12.932" cy="12.932" r="12.932" transform="translate(37.887 28.797) rotate(-80.029)" fill="#ffc2b0"/><path d="M473.785,210s-7.119,3.05-12.05,3.086-3.843-4.094-3.843-4.094l14.635-2.114Z" transform="translate(-417.952 -191.224)" fill="#ea9c92"/><path d="M462.1,215.919s6.2-2.633,11.643-1.535a5.694,5.694,0,0,1,3.288,1.954,1.945,1.945,0,0,0,1,.721c.964.218,2.545-3.785,4.42-3.876s3.127,1.236,1.59,3.7-1.019,5.218-.31,5.613,8.211-5.353,1.591-18.467-23.433-6.05-26.049-3.392c0,0-2.754,2.4-4.995.264C454.275,200.9,451.763,219.712,462.1,215.919Z" transform="translate(-419.79 -196.341)" fill="#11427b"/><path d="M482.595,247.847v9.836a4.006,4.006,0,0,1-1.307,2.962l-20.209,18.425,2.3,3.511,26.688-19.355a5.425,5.425,0,0,0,2.209-3.824l1.805-17.156Z" transform="translate(-416.355 -174.047)" fill="#ffc2b0"/><path d="M484.046,224.8s6.13,9.22,8.415,33.491c0,0-10.474,3.386-16.418,1.463S484.046,224.8,484.046,224.8Z" transform="translate(-409.803 -182.519)" fill="#4dd0e1"/><path d="M475.637,232.648s-2.4,12.846-2.536,18.883a3.849,3.849,0,0,0,2.536,3.722h0Z" transform="translate(-410.516 -178.708)" fill="#3199a7"/></g><g transform="translate(3.23 97.679)"><path d="M490.905,281.4l-4.467-.59-28.832-16.647a4.01,4.01,0,0,0-3.607.15L433.568,276.1l-2.7-.357v2.689h0a1.054,1.054,0,0,0,.62.948l32.677,18.865a4,4,0,0,0,3.606-.149l22.251-12.842a1.457,1.457,0,0,0,.883-1.212h0Z" transform="translate(-430.866 -261.258)" fill="#173d7a"/><path d="M469.241,268.95l-2.049-1.183H444.67l-11.1,6.4-2.7-.357V276.5h0a1.054,1.054,0,0,0,.62.948l32.677,18.865a3.377,3.377,0,0,0,1.862.349Z" transform="translate(-430.866 -259.331)" fill="#396caa"/><path d="M432.066,272l-1.2-.159v2.689h0a1.054,1.054,0,0,0,.62.948l.576.333Z" transform="translate(-430.866 -257.354)" fill="#5793ce"/><path d="M453.5,288.644a4.185,4.185,0,0,0,3.065-.19V283.88H453.5Z" transform="translate(-419.873 -251.506)" fill="#274f89"/><path d="M464.167,296.388,431.49,277.522c-.924-.533-.808-1.466.258-2.081L454,262.6a4.01,4.01,0,0,1,3.607-.15l32.676,18.866c.924.533.808,1.465-.259,2.081l-22.251,12.842A4.007,4.007,0,0,1,464.167,296.388Z" transform="translate(-430.866 -262.089)" fill="#fff"/><path d="M461.961,291.275l-27.171-15.687c-.768-.443-.672-1.218.215-1.731l11.924-6.7a3.33,3.33,0,0,1,3-.125L477.1,282.715c.768.444.672,1.218-.215,1.731l-11.924,6.7A3.33,3.33,0,0,1,461.961,291.275Z" transform="translate(-429.212 -259.835)" fill="#d4ecff"/></g><path d="M447.459,262.386l-.339,2.254a16.691,16.691,0,0,0,.147,5.782l.4,1.986a2.792,2.792,0,0,0,2.239,2.194h0a1.539,1.539,0,0,0,1.807-1.345l.539-4.819s1.235,1.615,1.829,1.615-.666-4.827-2.013-7.558S447.459,262.386,447.459,262.386Z" transform="translate(-419.832 -164.816)" fill="#ffc2b0"/><path d="M459.058,240.119l-3.506,6.939a13.643,13.643,0,0,0-1.435,5.268l-1.523,23.736-4.612-.11L445.888,249.3a9.785,9.785,0,0,1,.12-2.465l2.39-13.517Z" transform="translate(-420.355 -178.384)" fill="#ffc2b0"/><g transform="translate(0 83.545)"><path d="M463.93,302.82l-2.74-3.576-28.813-16.682a4.007,4.007,0,0,1-1.67-3.2l.024-23.589-1.656-2.163,1.557-.9h0a1.054,1.054,0,0,1,1.131.065l32.653,18.9a4.009,4.009,0,0,1,1.67,3.2l-.028,25.69a1.452,1.452,0,0,1-.611,1.37h0Z" transform="translate(-428.506 -252.575)" fill="#173d7a"/><path d="M444,289.294l-2.047-1.186L430.72,268.59l.012-12.818-1.656-2.163,1.557-.9h0a1.054,1.054,0,0,1,1.131.065l32.653,18.9a3.379,3.379,0,0,1,1.23,1.44Z" transform="translate(-428.506 -252.575)" fill="#396caa"/><path d="M429.81,254.569l-.735-.96,1.557-.9h0a1.054,1.054,0,0,1,1.131.065l.575.333Z" transform="translate(-428.506 -252.575)" fill="#5793ce"/><path d="M454.16,265.576a4.18,4.18,0,0,1,1.365,2.75l-3.191,1.842-1.529-2.655Z" transform="translate(-417.953 -246.261)" fill="#274f89"/><path d="M463.048,272.287l-32.653-18.9c-.924-.535-1.674.031-1.676,1.263l-.027,25.691a4.006,4.006,0,0,0,1.67,3.2l32.653,18.906c.924.535,1.673-.031,1.674-1.264l.028-25.69A4.009,4.009,0,0,0,463.048,272.287Z" transform="translate(-428.692 -252.281)" fill="#fff"/></g><path d="M466.144,270.544l-.523,1.085a7.263,7.263,0,0,1-2.729,3.025l-3.245,2a3.228,3.228,0,0,1-3.31.077l-.111-.067a1.952,1.952,0,0,1-.275-3l3.389-3.485s-1.9,1.459-2.438.872c-.391-.431,1.847-2.532,3.566-2.6a6.779,6.779,0,0,0,3.38-1.417Z" transform="translate(-415.732 -162.009)" fill="#ffc2b0"/><path d="M462.539,216.489s-12.424,13.519-17.437,25.922a25.366,25.366,0,0,0,14.649,10.66C470.152,256.073,462.539,216.489,462.539,216.489Z" transform="translate(-420.722 -186.556)" fill="#4dd0e1"/><path d="M454.281,246.932l2.013-19.455L451.549,245.7A27.188,27.188,0,0,0,454.281,246.932Z" transform="translate(-417.591 -181.219)" fill="#3199a7"/><path d="M464.194,214.952l-3.338-.917a8.065,8.065,0,0,0,3.921,3.147c2.328.639,2.689-1.331,2.689-1.331Z" transform="translate(-413.071 -187.748)" fill="#fff"/></g></g></svg>