<svg xmlns="http://www.w3.org/2000/svg" width="536" height="326.156" viewBox="0 0 536 326.156"><g transform="translate(-415 -8216)"><g transform="translate(415 8216)" fill="none"><path d="M0,0H536V292H0Z" stroke="none"/><path d="M 1 1 L 1 291 L 535 291 L 535 1 L 1 1 M 0 0 L 536 0 L 536 292 L 0 292 L 0 0 Z" stroke="none" fill="#a3a3a3"/></g><g transform="translate(415 8216)" fill="#fff5d5"><path d="M 535.5 53.5 L 0.5 53.5 L 0.5 0.5 L 535.5 0.5 L 535.5 53.5 Z" stroke="none"/><path d="M 1 1 L 1 53 L 535 53 L 535 1 L 1 1 M 0 0 L 536 0 L 536 54 L 0 54 L 0 0 Z" stroke="none" fill="#a3a3a3"/></g><g transform="translate(415 8216)" fill="none"><path d="M0,0H536V292H0Z" stroke="none"/><path d="M 1 1 L 1 291 L 535 291 L 535 1 L 1 1 M 0 0 L 536 0 L 536 292 L 0 292 L 0 0 Z" stroke="none" fill="#a3a3a3"/></g><path d="M3555,7569v291.5" transform="translate(-2872 647)" fill="none" stroke="#a3a3a3" stroke-width="1"/><path d="M-19.223-9.477h-3.484V0h-2.344V-9.477h-3.437v-1.9h9.266ZM-14.449,0a2.507,2.507,0,0,1-.227-.758,2.732,2.732,0,0,1-2.133.914,3,3,0,0,1-2.059-.719,2.312,2.312,0,0,1-.816-1.812,2.389,2.389,0,0,1,1-2.062,4.915,4.915,0,0,1,2.879-.727h1.039v-.484a1.393,1.393,0,0,0-.3-.937,1.183,1.183,0,0,0-.949-.352,1.345,1.345,0,0,0-.895.273.929.929,0,0,0-.324.75H-19.5a2.268,2.268,0,0,1,.453-1.359,3,3,0,0,1,1.281-.98A4.669,4.669,0,0,1-15.9-8.609a3.689,3.689,0,0,1,2.48.785A2.747,2.747,0,0,1-12.5-5.617v3.664a4.041,4.041,0,0,0,.336,1.82V0Zm-1.867-1.57a1.945,1.945,0,0,0,.922-.223,1.462,1.462,0,0,0,.625-.6V-3.844h-.844q-1.7,0-1.8,1.172l-.008.133a.9.9,0,0,0,.3.7A1.153,1.153,0,0,0-16.316-1.57Zm7.664-6.883.07.945a2.971,2.971,0,0,1,2.43-1.1A2.255,2.255,0,0,1-3.91-7.32,2.9,2.9,0,0,1-1.371-8.609a2.521,2.521,0,0,1,2.047.8A3.681,3.681,0,0,1,1.348-5.4V0H-.918V-5.391A1.61,1.61,0,0,0-1.2-6.441a1.246,1.246,0,0,0-.992-.332A1.409,1.409,0,0,0-3.6-5.8L-3.59,0H-5.848V-5.383a1.59,1.59,0,0,0-.289-1.062,1.259,1.259,0,0,0-.984-.328,1.463,1.463,0,0,0-1.391.8V0H-10.77V-8.453ZM7.98,0a2.507,2.507,0,0,1-.227-.758A2.732,2.732,0,0,1,5.621.156,3,3,0,0,1,3.563-.562a2.312,2.312,0,0,1-.816-1.812,2.389,2.389,0,0,1,1-2.062,4.915,4.915,0,0,1,2.879-.727H7.66v-.484a1.393,1.393,0,0,0-.3-.937,1.183,1.183,0,0,0-.949-.352,1.345,1.345,0,0,0-.895.273.929.929,0,0,0-.324.75H2.934a2.268,2.268,0,0,1,.453-1.359,3,3,0,0,1,1.281-.98,4.669,4.669,0,0,1,1.859-.355,3.689,3.689,0,0,1,2.48.785,2.747,2.747,0,0,1,.918,2.207v3.664a4.041,4.041,0,0,0,.336,1.82V0ZM6.113-1.57a1.945,1.945,0,0,0,.922-.223,1.462,1.462,0,0,0,.625-.6V-3.844H6.816q-1.7,0-1.8,1.172L5-2.539a.9.9,0,0,0,.3.7A1.153,1.153,0,0,0,6.113-1.57Zm7.625-6.883.07.977a2.951,2.951,0,0,1,2.43-1.133,2.453,2.453,0,0,1,2,.789,3.682,3.682,0,0,1,.672,2.359V0H16.652V-5.406a1.465,1.465,0,0,0-.312-1.043A1.4,1.4,0,0,0,15.3-6.773a1.553,1.553,0,0,0-1.43.813V0H11.613V-8.453ZM18.223-11.9a2.187,2.187,0,0,1-.516,1.48,1.6,1.6,0,0,1-1.258.6,1.908,1.908,0,0,1-.527-.066,3.539,3.539,0,0,1-.637-.285,3.435,3.435,0,0,0-.586-.27,1.432,1.432,0,0,0-.391-.051.627.627,0,0,0-.465.2.759.759,0,0,0-.191.555L12.34-9.82a2.22,2.22,0,0,1,.512-1.477,1.578,1.578,0,0,1,1.254-.609,1.614,1.614,0,0,1,.441.059,4.861,4.861,0,0,1,.676.285,4.392,4.392,0,0,0,.648.273,1.48,1.48,0,0,0,.375.047.659.659,0,0,0,.473-.191.728.728,0,0,0,.2-.551ZM20.27-4.3a5.013,5.013,0,0,1,.484-2.242A3.546,3.546,0,0,1,22.148-8.07a4.069,4.069,0,0,1,2.113-.539,3.849,3.849,0,0,1,2.793,1.047,4.2,4.2,0,0,1,1.207,2.844l.016.578A4.418,4.418,0,0,1,27.191-1.02,3.775,3.775,0,0,1,24.277.156a3.793,3.793,0,0,1-2.918-1.172A4.5,4.5,0,0,1,20.27-4.2Zm2.258.16A3.16,3.16,0,0,0,22.98-2.3a1.5,1.5,0,0,0,1.3.638,1.5,1.5,0,0,0,1.281-.63,3.457,3.457,0,0,0,.461-2.015,3.128,3.128,0,0,0-.461-1.831,1.5,1.5,0,0,0-1.3-.649,1.474,1.474,0,0,0-1.281.646A3.516,3.516,0,0,0,22.527-4.144Z" transform="translate(548 8248.5)" fill="#111e61"/><path d="M-22.207-4.648h-4.5V0h-2.344V-11.375h7.406v1.9h-5.062v2.938h4.5Zm1.258.344a5.013,5.013,0,0,1,.484-2.242A3.546,3.546,0,0,1-19.07-8.07a4.069,4.069,0,0,1,2.113-.539,3.849,3.849,0,0,1,2.793,1.047,4.2,4.2,0,0,1,1.207,2.844l.016.578A4.418,4.418,0,0,1-14.027-1.02,3.775,3.775,0,0,1-16.941.156a3.793,3.793,0,0,1-2.918-1.172A4.5,4.5,0,0,1-20.949-4.2Zm2.258.16A3.16,3.16,0,0,0-18.238-2.3a1.5,1.5,0,0,0,1.3.638,1.5,1.5,0,0,0,1.281-.63A3.457,3.457,0,0,0-15.2-4.309,3.128,3.128,0,0,0-15.66-6.14a1.5,1.5,0,0,0-1.3-.649,1.474,1.474,0,0,0-1.281.646A3.516,3.516,0,0,0-18.691-4.144ZM-6.8-6.336A6.134,6.134,0,0,0-7.613-6.4a1.654,1.654,0,0,0-1.68.867V0h-2.258V-8.453h2.133l.063,1.008A2.092,2.092,0,0,1-7.473-8.609a2.366,2.366,0,0,1,.7.1Zm3.2-2.117.07.945a2.971,2.971,0,0,1,2.43-1.1A2.255,2.255,0,0,1,1.145-7.32,2.9,2.9,0,0,1,3.684-8.609a2.521,2.521,0,0,1,2.047.8A3.681,3.681,0,0,1,6.4-5.4V0H4.137V-5.391a1.61,1.61,0,0,0-.281-1.051,1.246,1.246,0,0,0-.992-.332A1.409,1.409,0,0,0,1.457-5.8L1.465,0H-.793V-5.383a1.59,1.59,0,0,0-.289-1.062,1.259,1.259,0,0,0-.984-.328,1.463,1.463,0,0,0-1.391.8V0H-5.715V-8.453ZM13.035,0a2.507,2.507,0,0,1-.227-.758,2.732,2.732,0,0,1-2.133.914A3,3,0,0,1,8.617-.562,2.312,2.312,0,0,1,7.8-2.375a2.389,2.389,0,0,1,1-2.062,4.915,4.915,0,0,1,2.879-.727h1.039v-.484a1.393,1.393,0,0,0-.3-.937,1.183,1.183,0,0,0-.949-.352,1.345,1.345,0,0,0-.895.273.929.929,0,0,0-.324.75H7.988a2.268,2.268,0,0,1,.453-1.359,3,3,0,0,1,1.281-.98,4.669,4.669,0,0,1,1.859-.355,3.689,3.689,0,0,1,2.48.785,2.747,2.747,0,0,1,.918,2.207v3.664a4.041,4.041,0,0,0,.336,1.82V0ZM11.168-1.57a1.945,1.945,0,0,0,.922-.223,1.462,1.462,0,0,0,.625-.6V-3.844h-.844q-1.7,0-1.8,1.172l-.008.133a.9.9,0,0,0,.3.7A1.153,1.153,0,0,0,11.168-1.57Zm8.25-8.961v2.078h1.445V-6.8H19.418v4.219a1.007,1.007,0,0,0,.18.672.9.9,0,0,0,.688.2,3.6,3.6,0,0,0,.664-.055V-.047a4.648,4.648,0,0,1-1.367.2,2.156,2.156,0,0,1-2.422-2.4V-6.8H15.926V-8.453H17.16v-2.078ZM21.535-4.3a5.013,5.013,0,0,1,.484-2.242A3.546,3.546,0,0,1,23.414-8.07a4.069,4.069,0,0,1,2.113-.539A3.849,3.849,0,0,1,28.32-7.562a4.2,4.2,0,0,1,1.207,2.844l.016.578A4.418,4.418,0,0,1,28.457-1.02,3.775,3.775,0,0,1,25.543.156a3.793,3.793,0,0,1-2.918-1.172A4.5,4.5,0,0,1,21.535-4.2Zm2.258.16A3.16,3.16,0,0,0,24.246-2.3a1.5,1.5,0,0,0,1.3.638,1.5,1.5,0,0,0,1.281-.63,3.457,3.457,0,0,0,.461-2.015,3.128,3.128,0,0,0-.461-1.831,1.5,1.5,0,0,0-1.3-.649,1.474,1.474,0,0,0-1.281.646A3.516,3.516,0,0,0,23.793-4.144Z" transform="translate(828 8248.5)" fill="#111e61"/><path d="M-38.871-10.148h-3.656V0H-44.02V-10.148h-3.648v-1.227h8.8ZM-33.074,0a3.036,3.036,0,0,1-.2-.891A3.225,3.225,0,0,1-35.684.156a2.984,2.984,0,0,1-2.051-.707,2.287,2.287,0,0,1-.8-1.793,2.39,2.39,0,0,1,1-2.051,4.733,4.733,0,0,1,2.824-.73H-33.3v-.664A1.623,1.623,0,0,0-33.754-7a1.821,1.821,0,0,0-1.336-.449,2.107,2.107,0,0,0-1.3.391,1.151,1.151,0,0,0-.523.945h-1.453a2,2,0,0,1,.449-1.223A3.066,3.066,0,0,1-36.7-8.266,4.1,4.1,0,0,1-35-8.609a3.342,3.342,0,0,1,2.289.73,2.635,2.635,0,0,1,.859,2.012v3.891a4.757,4.757,0,0,0,.3,1.852V0Zm-2.4-1.1a2.54,2.54,0,0,0,1.289-.352,2.127,2.127,0,0,0,.883-.914V-4.1h-1.133q-2.656,0-2.656,1.555a1.316,1.316,0,0,0,.453,1.063A1.742,1.742,0,0,0-35.473-1.1Zm13.039-3.031a5.026,5.026,0,0,1-.891,3.113A2.846,2.846,0,0,1-25.715.156,2.947,2.947,0,0,1-28.191-.977l-.07.977H-29.59V-12h1.445v4.477A2.93,2.93,0,0,1-25.73-8.609a2.863,2.863,0,0,1,2.418,1.164,5.177,5.177,0,0,1,.879,3.188ZM-23.879-4.3a3.906,3.906,0,0,0-.57-2.281,1.888,1.888,0,0,0-1.641-.8,2.122,2.122,0,0,0-2.055,1.328V-2.4a2.181,2.181,0,0,0,2.07,1.328,1.878,1.878,0,0,0,1.617-.8A4.153,4.153,0,0,0-23.879-4.3ZM-19.043,0h-1.445V-12h1.445Zm7.531,0a3.036,3.036,0,0,1-.2-.891A3.225,3.225,0,0,1-14.121.156a2.984,2.984,0,0,1-2.051-.707,2.287,2.287,0,0,1-.8-1.793,2.39,2.39,0,0,1,1-2.051,4.733,4.733,0,0,1,2.824-.73h1.406v-.664A1.623,1.623,0,0,0-12.191-7a1.821,1.821,0,0,0-1.336-.449,2.107,2.107,0,0,0-1.3.391,1.151,1.151,0,0,0-.523.945H-16.8a2,2,0,0,1,.449-1.223,3.066,3.066,0,0,1,1.219-.934,4.1,4.1,0,0,1,1.691-.344,3.342,3.342,0,0,1,2.289.73,2.635,2.635,0,0,1,.859,2.012v3.891A4.757,4.757,0,0,0-10-.125V0Zm-2.4-1.1a2.54,2.54,0,0,0,1.289-.352,2.127,2.127,0,0,0,.883-.914V-4.1h-1.133q-2.656,0-2.656,1.555a1.316,1.316,0,0,0,.453,1.063A1.742,1.742,0,0,0-13.91-1.1ZM-.559.156a3.693,3.693,0,0,1-2.8-1.129,4.19,4.19,0,0,1-1.078-3.02v-.266A5.073,5.073,0,0,1-3.953-6.5,3.748,3.748,0,0,1-2.609-8.051,3.378,3.378,0,0,1-.738-8.609,3.166,3.166,0,0,1,1.824-7.523a4.7,4.7,0,0,1,.914,3.109v.6H-2.988a3,3,0,0,0,.73,2.02,2.3,2.3,0,0,0,1.777.77,2.517,2.517,0,0,0,1.3-.312,3.259,3.259,0,0,0,.93-.828l.883.688A3.55,3.55,0,0,1-.559.156Zm-.18-7.578a1.928,1.928,0,0,0-1.469.637A3.1,3.1,0,0,0-2.941-5H1.293v-.109A2.753,2.753,0,0,0,.7-6.816,1.815,1.815,0,0,0-.738-7.422ZM5.777-8.453l.047,1.063A3.08,3.08,0,0,1,8.355-8.609q2.68,0,2.7,3.023V0H9.613V-5.594A1.946,1.946,0,0,0,9.2-6.945a1.675,1.675,0,0,0-1.277-.437,2.086,2.086,0,0,0-1.234.375,2.546,2.546,0,0,0-.828.984V0H4.41V-8.453ZM18.645-7.43a3.073,3.073,0,0,1,2.5-1.18q2.68,0,2.7,3.023V0H22.4V-5.594a1.946,1.946,0,0,0-.418-1.352,1.675,1.675,0,0,0-1.277-.437,2.086,2.086,0,0,0-1.234.375,2.546,2.546,0,0,0-.828.984V0H17.2V-12h1.445Zm9.328-3.07v2.047h1.578v1.117H27.973v5.249a1.173,1.173,0,0,0,.211.763.888.888,0,0,0,.719.254,3.5,3.5,0,0,0,.688-.094V0A4.215,4.215,0,0,1,28.48.156,1.8,1.8,0,0,1,27.02-.43a2.517,2.517,0,0,1-.492-1.664V-7.336H24.988V-8.453h1.539V-10.5ZM32.6-8.453l.039.938a3.122,3.122,0,0,1,2.508-1.094A2.417,2.417,0,0,1,37.559-7.25a3.2,3.2,0,0,1,1.1-.984,3.242,3.242,0,0,1,1.6-.375q2.781,0,2.828,2.945V0H41.637V-5.578a1.941,1.941,0,0,0-.414-1.355,1.823,1.823,0,0,0-1.391-.449A1.917,1.917,0,0,0,38.5-6.9a1.949,1.949,0,0,0-.617,1.293V0H36.426V-5.539a1.613,1.613,0,0,0-1.8-1.844,1.934,1.934,0,0,0-1.945,1.211V0H31.23V-8.453ZM46.832,0H45.387V-12h1.445Z" transform="translate(683 8542)" fill="#ff1a1a"/></g></svg>