<svg xmlns="http://www.w3.org/2000/svg" width="1011" height="314.156" viewBox="0 0 1011 314.156"><g transform="translate(-179 -864)"><g transform="translate(179 864)" fill="#fff"><path d="M 1010.5 285.5 L 0.5 285.5 L 0.5 0.5 L 1010.5 0.5 L 1010.5 285.5 Z" stroke="none"/><path d="M 1 1 L 1 285 L 1010 285 L 1010 1 L 1 1 M 0 0 L 1011 0 L 1011 286 L 0 286 L 0 0 Z" stroke="none" fill="#b5b5b5"/></g><path d="M4487,949.9H5498" transform="translate(-4308 -38)" fill="none" stroke="#989898" stroke-width="1"/><path d="M4707,902v285.5" transform="translate(-4308 -38)" fill="none" stroke="#b2b2b2" stroke-width="1"/><path d="M4707,902v285.5" transform="translate(-4108 -38)" fill="none" stroke="#b2b2b2" stroke-width="1"/><path d="M4707,902v285.5" transform="translate(-3924 -38)" fill="none" stroke="#b2b2b2" stroke-width="1"/><path d="M4707,902v285.5" transform="translate(-3740 -38)" fill="none" stroke="#b2b2b2" stroke-width="1"/><path d="M-38.871-10.148h-3.656V0H-44.02V-10.148h-3.648v-1.227h8.8ZM-33.074,0a3.036,3.036,0,0,1-.2-.891A3.225,3.225,0,0,1-35.684.156a2.984,2.984,0,0,1-2.051-.707,2.287,2.287,0,0,1-.8-1.793,2.39,2.39,0,0,1,1-2.051,4.733,4.733,0,0,1,2.824-.73H-33.3v-.664A1.623,1.623,0,0,0-33.754-7a1.821,1.821,0,0,0-1.336-.449,2.107,2.107,0,0,0-1.3.391,1.151,1.151,0,0,0-.523.945h-1.453a2,2,0,0,1,.449-1.223A3.066,3.066,0,0,1-36.7-8.266,4.1,4.1,0,0,1-35-8.609a3.342,3.342,0,0,1,2.289.73,2.635,2.635,0,0,1,.859,2.012v3.891a4.757,4.757,0,0,0,.3,1.852V0Zm-2.4-1.1a2.54,2.54,0,0,0,1.289-.352,2.127,2.127,0,0,0,.883-.914V-4.1h-1.133q-2.656,0-2.656,1.555a1.316,1.316,0,0,0,.453,1.063A1.742,1.742,0,0,0-35.473-1.1Zm13.039-3.031a5.026,5.026,0,0,1-.891,3.113A2.846,2.846,0,0,1-25.715.156,2.947,2.947,0,0,1-28.191-.977l-.07.977H-29.59V-12h1.445v4.477A2.93,2.93,0,0,1-25.73-8.609a2.863,2.863,0,0,1,2.418,1.164,5.177,5.177,0,0,1,.879,3.188ZM-23.879-4.3a3.906,3.906,0,0,0-.57-2.281,1.888,1.888,0,0,0-1.641-.8,2.122,2.122,0,0,0-2.055,1.328V-2.4a2.181,2.181,0,0,0,2.07,1.328,1.878,1.878,0,0,0,1.617-.8A4.153,4.153,0,0,0-23.879-4.3ZM-19.043,0h-1.445V-12h1.445Zm7.531,0a3.036,3.036,0,0,1-.2-.891A3.225,3.225,0,0,1-14.121.156a2.984,2.984,0,0,1-2.051-.707,2.287,2.287,0,0,1-.8-1.793,2.39,2.39,0,0,1,1-2.051,4.733,4.733,0,0,1,2.824-.73h1.406v-.664A1.623,1.623,0,0,0-12.191-7a1.821,1.821,0,0,0-1.336-.449,2.107,2.107,0,0,0-1.3.391,1.151,1.151,0,0,0-.523.945H-16.8a2,2,0,0,1,.449-1.223,3.066,3.066,0,0,1,1.219-.934,4.1,4.1,0,0,1,1.691-.344,3.342,3.342,0,0,1,2.289.73,2.635,2.635,0,0,1,.859,2.012v3.891A4.757,4.757,0,0,0-10-.125V0Zm-2.4-1.1a2.54,2.54,0,0,0,1.289-.352,2.127,2.127,0,0,0,.883-.914V-4.1h-1.133q-2.656,0-2.656,1.555a1.316,1.316,0,0,0,.453,1.063A1.742,1.742,0,0,0-13.91-1.1ZM-.559.156a3.693,3.693,0,0,1-2.8-1.129,4.19,4.19,0,0,1-1.078-3.02v-.266A5.073,5.073,0,0,1-3.953-6.5,3.748,3.748,0,0,1-2.609-8.051,3.378,3.378,0,0,1-.738-8.609,3.166,3.166,0,0,1,1.824-7.523a4.7,4.7,0,0,1,.914,3.109v.6H-2.988a3,3,0,0,0,.73,2.02,2.3,2.3,0,0,0,1.777.77,2.517,2.517,0,0,0,1.3-.312,3.259,3.259,0,0,0,.93-.828l.883.688A3.55,3.55,0,0,1-.559.156Zm-.18-7.578a1.928,1.928,0,0,0-1.469.637A3.1,3.1,0,0,0-2.941-5H1.293v-.109A2.753,2.753,0,0,0,.7-6.816,1.815,1.815,0,0,0-.738-7.422ZM5.777-8.453l.047,1.063A3.08,3.08,0,0,1,8.355-8.609q2.68,0,2.7,3.023V0H9.613V-5.594A1.946,1.946,0,0,0,9.2-6.945a1.675,1.675,0,0,0-1.277-.437,2.086,2.086,0,0,0-1.234.375,2.546,2.546,0,0,0-.828.984V0H4.41V-8.453ZM18.645-7.43a3.073,3.073,0,0,1,2.5-1.18q2.68,0,2.7,3.023V0H22.4V-5.594a1.946,1.946,0,0,0-.418-1.352,1.675,1.675,0,0,0-1.277-.437,2.086,2.086,0,0,0-1.234.375,2.546,2.546,0,0,0-.828.984V0H17.2V-12h1.445Zm9.328-3.07v2.047h1.578v1.117H27.973v5.249a1.173,1.173,0,0,0,.211.763.888.888,0,0,0,.719.254,3.5,3.5,0,0,0,.688-.094V0A4.215,4.215,0,0,1,28.48.156,1.8,1.8,0,0,1,27.02-.43a2.517,2.517,0,0,1-.492-1.664V-7.336H24.988V-8.453h1.539V-10.5ZM32.6-8.453l.039.938a3.122,3.122,0,0,1,2.508-1.094A2.417,2.417,0,0,1,37.559-7.25a3.2,3.2,0,0,1,1.1-.984,3.242,3.242,0,0,1,1.6-.375q2.781,0,2.828,2.945V0H41.637V-5.578a1.941,1.941,0,0,0-.414-1.355,1.823,1.823,0,0,0-1.391-.449A1.917,1.917,0,0,0,38.5-6.9a1.949,1.949,0,0,0-.617,1.293V0H36.426V-5.539a1.613,1.613,0,0,0-1.8-1.844,1.934,1.934,0,0,0-1.945,1.211V0H31.23V-8.453ZM46.832,0H45.387V-12h1.445Z" transform="translate(683 1178)" fill="#ff1a1a"/></g></svg>