<svg xmlns="http://www.w3.org/2000/svg" width="1011" height="334.156" viewBox="0 0 1011 334.156"><g transform="translate(-179 -1621)"><g transform="translate(179 1621)" fill="#fff"><path d="M 1010.5 285.5 L 0.5 285.5 L 0.5 0.5 L 1010.5 0.5 L 1010.5 285.5 Z" stroke="none"/><path d="M 1 1 L 1 285 L 1010 285 L 1010 1 L 1 1 M 0 0 L 1011 0 L 1011 286 L 0 286 L 0 0 Z" stroke="none" fill="#b5b5b5"/></g><path d="M4487,949.9H5498" transform="translate(-4308 719)" fill="none" stroke="#989898" stroke-width="1"/><path d="M4707,902v285.5" transform="translate(-4308 719)" fill="none" stroke="#b2b2b2" stroke-width="1"/><path d="M4707,902v285.5" transform="translate(-4108 719)" fill="none" stroke="#b2b2b2" stroke-width="1"/><path d="M4707,902v285.5" transform="translate(-3924 719)" fill="none" stroke="#b2b2b2" stroke-width="1"/><path d="M-43-10.148h-3.656V0h-1.492V-10.148h-3.648v-1.227H-43ZM-37.2,0a3.036,3.036,0,0,1-.2-.891A3.225,3.225,0,0,1-39.809.156a2.984,2.984,0,0,1-2.051-.707,2.287,2.287,0,0,1-.8-1.793,2.39,2.39,0,0,1,1-2.051,4.733,4.733,0,0,1,2.824-.73h1.406v-.664A1.623,1.623,0,0,0-37.879-7a1.821,1.821,0,0,0-1.336-.449,2.107,2.107,0,0,0-1.3.391,1.151,1.151,0,0,0-.523.945h-1.453a2,2,0,0,1,.449-1.223,3.066,3.066,0,0,1,1.219-.934,4.1,4.1,0,0,1,1.691-.344,3.342,3.342,0,0,1,2.289.73,2.635,2.635,0,0,1,.859,2.012v3.891a4.757,4.757,0,0,0,.3,1.852V0Zm-2.4-1.1a2.54,2.54,0,0,0,1.289-.352,2.127,2.127,0,0,0,.883-.914V-4.1h-1.133q-2.656,0-2.656,1.555a1.316,1.316,0,0,0,.453,1.063A1.742,1.742,0,0,0-39.6-1.1Zm13.039-3.031a5.026,5.026,0,0,1-.891,3.113A2.846,2.846,0,0,1-29.84.156,2.947,2.947,0,0,1-32.316-.977l-.07.977h-1.328V-12h1.445v4.477a2.93,2.93,0,0,1,2.414-1.086,2.863,2.863,0,0,1,2.418,1.164,5.177,5.177,0,0,1,.879,3.188ZM-28-4.3a3.906,3.906,0,0,0-.57-2.281,1.888,1.888,0,0,0-1.641-.8A2.122,2.122,0,0,0-32.27-6.055V-2.4A2.181,2.181,0,0,0-30.2-1.07a1.878,1.878,0,0,0,1.617-.8A4.153,4.153,0,0,0-28-4.3ZM-23.168,0h-1.445V-12h1.445Zm7.531,0a3.036,3.036,0,0,1-.2-.891A3.225,3.225,0,0,1-18.246.156,2.984,2.984,0,0,1-20.3-.551a2.287,2.287,0,0,1-.8-1.793,2.39,2.39,0,0,1,1-2.051,4.733,4.733,0,0,1,2.824-.73h1.406v-.664A1.623,1.623,0,0,0-16.316-7a1.821,1.821,0,0,0-1.336-.449,2.108,2.108,0,0,0-1.3.391,1.151,1.151,0,0,0-.523.945h-1.453a2,2,0,0,1,.449-1.223,3.066,3.066,0,0,1,1.219-.934,4.1,4.1,0,0,1,1.691-.344,3.342,3.342,0,0,1,2.289.73,2.635,2.635,0,0,1,.859,2.012v3.891a4.757,4.757,0,0,0,.3,1.852V0Zm-2.4-1.1a2.54,2.54,0,0,0,1.289-.352,2.127,2.127,0,0,0,.883-.914V-4.1H-17q-2.656,0-2.656,1.555A1.316,1.316,0,0,0-19.2-1.484,1.742,1.742,0,0,0-18.035-1.1Zm10.8-1.141a1.064,1.064,0,0,0-.441-.91,4.249,4.249,0,0,0-1.539-.559,7.277,7.277,0,0,1-1.742-.562,2.479,2.479,0,0,1-.953-.781,1.869,1.869,0,0,1-.309-1.078,2.193,2.193,0,0,1,.879-1.758A3.432,3.432,0,0,1-9.09-8.609a3.532,3.532,0,0,1,2.332.742,2.357,2.357,0,0,1,.895,1.9H-7.316a1.3,1.3,0,0,0-.5-1.023,1.888,1.888,0,0,0-1.27-.43,1.976,1.976,0,0,0-1.234.344,1.082,1.082,0,0,0-.445.9.877.877,0,0,0,.414.789,5.1,5.1,0,0,0,1.5.508A7.8,7.8,0,0,1-7.105-4.3a2.558,2.558,0,0,1,1,.809,1.988,1.988,0,0,1,.324,1.152A2.163,2.163,0,0,1-6.691-.527,3.8,3.8,0,0,1-9.043.156,4.257,4.257,0,0,1-10.84-.2a2.922,2.922,0,0,1-1.223-1A2.42,2.42,0,0,1-12.5-2.6h1.445a1.5,1.5,0,0,0,.582,1.152,2.258,2.258,0,0,0,1.434.426,2.331,2.331,0,0,0,1.316-.332A1.02,1.02,0,0,0-7.23-2.242Zm10.8,2.4A3.693,3.693,0,0,1,.77-.973,4.19,4.19,0,0,1-.309-3.992v-.266A5.073,5.073,0,0,1,.172-6.5,3.748,3.748,0,0,1,1.516-8.051a3.378,3.378,0,0,1,1.871-.559A3.166,3.166,0,0,1,5.949-7.523a4.7,4.7,0,0,1,.914,3.109v.6H1.137a3,3,0,0,0,.73,2.02,2.3,2.3,0,0,0,1.777.77,2.517,2.517,0,0,0,1.3-.312,3.259,3.259,0,0,0,.93-.828l.883.688A3.55,3.55,0,0,1,3.566.156Zm-.18-7.578a1.928,1.928,0,0,0-1.469.637A3.1,3.1,0,0,0,1.184-5H5.418v-.109a2.753,2.753,0,0,0-.594-1.707A1.815,1.815,0,0,0,3.387-7.422ZM9.9-8.453l.047,1.063A3.08,3.08,0,0,1,12.48-8.609q2.68,0,2.7,3.023V0H13.738V-5.594a1.946,1.946,0,0,0-.418-1.352,1.675,1.675,0,0,0-1.277-.437,2.086,2.086,0,0,0-1.234.375,2.546,2.546,0,0,0-.828.984V0H8.535V-8.453ZM22.77-7.43a3.073,3.073,0,0,1,2.5-1.18q2.68,0,2.7,3.023V0H26.527V-5.594a1.946,1.946,0,0,0-.418-1.352,1.675,1.675,0,0,0-1.277-.437,2.086,2.086,0,0,0-1.234.375,2.546,2.546,0,0,0-.828.984V0H21.324V-12H22.77ZM32.1-10.5v2.047h1.578v1.117H32.1v5.249a1.173,1.173,0,0,0,.211.763.888.888,0,0,0,.719.254,3.5,3.5,0,0,0,.688-.094V0a4.215,4.215,0,0,1-1.109.155A1.8,1.8,0,0,1,31.145-.43a2.517,2.517,0,0,1-.492-1.664V-7.336H29.113V-8.453h1.539V-10.5Zm4.625,2.047.039.938A3.122,3.122,0,0,1,39.27-8.609,2.417,2.417,0,0,1,41.684-7.25a3.2,3.2,0,0,1,1.1-.984,3.242,3.242,0,0,1,1.6-.375q2.781,0,2.828,2.945V0H45.762V-5.578a1.941,1.941,0,0,0-.414-1.355,1.823,1.823,0,0,0-1.391-.449,1.917,1.917,0,0,0-1.336.48A1.949,1.949,0,0,0,42-5.609V0H40.551V-5.539a1.613,1.613,0,0,0-1.8-1.844A1.934,1.934,0,0,0,36.8-6.172V0H35.355V-8.453ZM50.957,0H49.512V-12h1.445Z" transform="translate(683 1955)" fill="#ff1a1a"/></g></svg>