<svg xmlns="http://www.w3.org/2000/svg" width="73.89" height="81.388" viewBox="0 0 73.89 81.388"><g transform="translate(-23.584)"><path d="M71.095,84.278l-3.534,1.857a1.941,1.941,0,0,1-1.806,0l-3.534-1.857c-19.4-10.2-31.35-29.016-31.35-49.378V22.462a1.931,1.931,0,0,1,1.712-1.928c6.688-.706,12-5.493,12.852-11.548a1.953,1.953,0,0,1,1.926-1.7H85.955a1.953,1.953,0,0,1,1.926,1.7c.847,6.055,6.164,10.843,12.852,11.548a1.931,1.931,0,0,1,1.712,1.928V34.9C102.445,55.262,90.5,74.08,71.095,84.278Z" transform="translate(-6.129 -6.129)" fill="#e1e6e9"/><path d="M287.2,20.533c-6.688-.706-12-5.493-12.852-11.549a1.953,1.953,0,0,0-1.926-1.7h-2.627c.378,8.4,6.361,14.349,12.833,15.032a1.931,1.931,0,0,1,1.712,1.928V36.683c0,20.362-11.948,39.18-31.35,49.378l-.408.214a1.939,1.939,0,0,0,1.447-.142l3.534-1.857c19.4-10.2,31.35-29.016,31.35-49.378V22.461A1.931,1.931,0,0,0,287.2,20.533Z" transform="translate(-192.596 -6.128)" fill="#cbcbcb"/><path d="M95.452,107.675a55.592,55.592,0,0,1-21.164-19.22,48.162,48.162,0,0,1-7.624-25.817v-7.06a2.492,2.492,0,0,1,1.57-2.32A21.877,21.877,0,0,0,80,42.446a2.487,2.487,0,0,1,2.249-1.41h29.027a2.487,2.487,0,0,1,2.249,1.41,21.877,21.877,0,0,0,11.764,10.812,2.493,2.493,0,0,1,1.57,2.32v7.06a48.162,48.162,0,0,1-7.624,25.817,55.594,55.594,0,0,1-21.164,19.22l-.146.077a2.5,2.5,0,0,1-2.326,0Z" transform="translate(-36.232 -34.513)" fill="#4ad194"/><path d="M284.528,53.257l-.122-.05-.2-.083q-.173-.072-.345-.146l-.2-.086q-.183-.082-.365-.166l-.165-.076q-.261-.124-.519-.254l-.038-.02q-.238-.121-.473-.248l-.166-.091c-.114-.062-.227-.125-.34-.19l-.186-.108q-.159-.093-.317-.188l-.182-.111c-.11-.068-.219-.137-.327-.207l-.159-.1q-.222-.145-.44-.3l-.033-.022q-.234-.162-.464-.33l-.142-.106q-.158-.117-.313-.236l-.166-.129q-.144-.113-.285-.228l-.164-.134q-.145-.12-.288-.243l-.147-.126q-.176-.154-.349-.312l-.072-.065q-.207-.19-.409-.386l-.115-.114q-.144-.141-.285-.284l-.143-.147q-.126-.131-.25-.263l-.144-.156q-.124-.135-.245-.273l-.131-.149c-.095-.109-.188-.22-.281-.331l-.081-.1q-.178-.216-.349-.437l-.087-.114q-.127-.165-.251-.333c-.04-.054-.078-.108-.117-.162q-.106-.147-.21-.3l-.12-.174q-.1-.15-.2-.3l-.11-.168c-.074-.115-.146-.23-.217-.347-.026-.043-.053-.085-.079-.128q-.144-.238-.282-.48c-.019-.034-.038-.069-.057-.1q-.108-.192-.212-.386c-.031-.057-.06-.115-.09-.172q-.085-.163-.167-.327-.047-.094-.093-.189c-.023-.048-.048-.1-.07-.143a2.487,2.487,0,0,0-2.249-1.41H256v67a2.5,2.5,0,0,0,1.163-.287l.146-.077a55.591,55.591,0,0,0,21.164-19.22A48.162,48.162,0,0,0,286.1,62.636v-7.06A2.492,2.492,0,0,0,284.528,53.257Z" transform="translate(-195.472 -34.512)" fill="#35b79e"/><path d="M284.528,53.257l-.122-.05-.2-.083q-.173-.072-.345-.146l-.2-.086q-.183-.082-.365-.166l-.165-.076q-.261-.124-.519-.254l-.038-.02q-.238-.121-.473-.248l-.166-.091c-.114-.062-.227-.125-.34-.19l-.186-.108q-.159-.093-.317-.188l-.182-.111c-.11-.068-.219-.137-.327-.207l-.158-.1q-.222-.145-.44-.3l-.033-.022q-.234-.162-.464-.33l-.142-.106q-.158-.117-.313-.236l-.166-.129q-.144-.113-.285-.228l-.164-.134q-.145-.12-.288-.243l-.147-.126q-.176-.154-.349-.312l-.072-.065q-.207-.19-.409-.386l-.115-.114c-.1-.094-.191-.188-.285-.284l-.143-.147q-.126-.131-.25-.263l-.144-.156q-.124-.135-.245-.273l-.131-.149c-.095-.109-.188-.22-.281-.331l-.081-.1q-.178-.216-.349-.437l-.087-.114q-.127-.165-.251-.333l-.117-.162q-.106-.147-.21-.3l-.12-.174q-.1-.15-.2-.3l-.11-.168c-.074-.115-.146-.23-.217-.347-.026-.043-.053-.085-.079-.128q-.144-.238-.282-.48c-.019-.034-.038-.069-.057-.1q-.108-.192-.212-.386c-.031-.057-.06-.115-.09-.172-.057-.109-.113-.218-.167-.327q-.047-.094-.093-.189c-.023-.048-.048-.1-.07-.143a2.487,2.487,0,0,0-2.249-1.41H266.5a22.292,22.292,0,0,1,1.766,2.664c.027.046.047.1.07.143l.093.189q.082.165.167.327c.03.058.06.115.09.172q.1.195.212.386c.019.034.038.069.057.1q.138.242.282.48c.026.043.053.085.079.128q.107.174.217.347c.036.056.073.112.11.168q.1.151.2.3l.12.174q.1.149.21.3l.117.162c.082.112.166.223.251.333l.087.114q.172.22.349.437l.081.1c.093.111.186.222.281.331l.131.149q.121.137.245.273l.144.156q.124.133.25.263l.143.147q.141.143.285.284l.115.114q.2.2.409.386l.072.065q.173.157.349.312l.147.126q.143.122.288.243l.164.134q.142.115.285.228l.166.129q.155.12.313.236l.142.106q.23.168.464.33l.033.022q.218.15.44.3l.158.1q.163.1.327.207l.182.111q.157.1.317.188l.186.108q.169.1.34.19l.166.091q.235.126.473.248l.038.02q.257.13.519.254l.165.076c.121.056.243.112.365.166l.2.086q.172.074.345.146l.2.083.122.05a2.492,2.492,0,0,1,1.57,2.32v7.06a48.162,48.162,0,0,1-7.624,25.817A59.317,59.317,0,0,1,256,107.972v.066a2.5,2.5,0,0,0,1.163-.287l.146-.077a55.591,55.591,0,0,0,21.164-19.22A48.162,48.162,0,0,0,286.1,62.637v-7.06A2.492,2.492,0,0,0,284.528,53.257Z" transform="translate(-195.472 -34.512)" fill="#1e9690"/><path d="M186.184,210.787H159.739a2.525,2.525,0,0,1-2.525-2.525V191.677a2.525,2.525,0,0,1,2.525-2.525h26.445a2.525,2.525,0,0,1,2.525,2.525v16.584A2.525,2.525,0,0,1,186.184,210.787Z" transform="translate(-112.388 -159.084)" fill="#636a75"/><path d="M315.267,189.152H310.7a2.525,2.525,0,0,1,2.525,2.525v16.584a2.525,2.525,0,0,1-2.525,2.525h4.573a2.525,2.525,0,0,0,2.525-2.525V191.677A2.525,2.525,0,0,0,315.267,189.152Z" transform="translate(-241.472 -159.084)" fill="#515a66"/><path d="M240.768,237.419v3.3a1.158,1.158,0,0,0,2.317,0v-3.3a2.713,2.713,0,1,0-2.317,0Z" transform="translate(-181.353 -195.336)"/><path d="M88.786,102.572h0l.146.077a3.658,3.658,0,0,0,3.4,0l.147-.077a56.752,56.752,0,0,0,21.6-19.625,49.318,49.318,0,0,0,7.8-26.438v-7.06a3.63,3.63,0,0,0-2.3-3.4A20.6,20.6,0,0,1,108.442,35.82a3.661,3.661,0,0,0-3.3-2.071H76.121a3.66,3.66,0,0,0-3.295,2.071A20.6,20.6,0,0,1,61.681,46.053a3.63,3.63,0,0,0-2.3,3.4v7.06a49.316,49.316,0,0,0,7.8,26.438A56.75,56.75,0,0,0,88.786,102.572ZM61.7,56.509v-7.06a1.326,1.326,0,0,1,.838-1.243A22.9,22.9,0,0,0,74.918,36.815a1.333,1.333,0,0,1,1.2-.749h29.027a1.333,1.333,0,0,1,1.2.749,22.906,22.906,0,0,0,12.384,11.392,1.326,1.326,0,0,1,.838,1.243v7.06a47.006,47.006,0,0,1-7.443,25.2,54.435,54.435,0,0,1-20.724,18.816l-.147.077a1.341,1.341,0,0,1-1.249,0l-.146-.077A54.434,54.434,0,0,1,69.139,81.706,47.006,47.006,0,0,1,61.7,56.509Z" transform="translate(-30.105 -28.384)"/><path d="M102,245.581a1.158,1.158,0,0,0-1.385.874c-3.528,15.606-14.271,29.141-29.477,37.133L67.6,285.446a.783.783,0,0,1-.729,0l-3.534-1.857c-15.229-8-25.979-21.562-29.491-37.2a1.158,1.158,0,0,0-2.26.508c3.662,16.3,14.842,30.418,30.674,38.74l3.534,1.857a3.1,3.1,0,0,0,2.884,0l3.534-1.857c15.807-8.308,26.981-22.4,30.659-38.672A1.158,1.158,0,0,0,102,245.581Z" transform="translate(-6.706 -206.464)"/><path d="M94.725,13.254C88.54,12.6,83.677,8.26,82.9,2.7A3.128,3.128,0,0,0,79.826,0H41.233A3.128,3.128,0,0,0,38.16,2.7c-.779,5.563-5.642,9.9-11.827,10.557a3.079,3.079,0,0,0-2.749,3.08V28.771a53.317,53.317,0,0,0,.278,5.431,1.158,1.158,0,0,0,1.151,1.04,1.173,1.173,0,0,0,.12-.006,1.158,1.158,0,0,0,1.034-1.271,51.007,51.007,0,0,1-.266-5.194V16.333a.777.777,0,0,1,.676-.776c7.245-.764,12.951-5.921,13.878-12.54a.792.792,0,0,1,.779-.7H79.826a.792.792,0,0,1,.779.7c.926,6.619,6.633,11.775,13.878,12.54a.777.777,0,0,1,.676.776V28.771a51.024,51.024,0,0,1-.261,5.141,1.158,1.158,0,0,0,2.3.234,53.326,53.326,0,0,0,.272-5.375V16.333A3.079,3.079,0,0,0,94.725,13.254Z"/><path d="M180.055,116.683A3.688,3.688,0,0,0,183.739,113V96.415a3.688,3.688,0,0,0-3.684-3.684h-1.9V87.2a11.318,11.318,0,0,0-22.636,0v5.529h-1.9a3.688,3.688,0,0,0-3.684,3.684V113a3.688,3.688,0,0,0,3.684,3.684ZM157.832,87.2a9,9,0,0,1,18,0v5.529h-18ZM152.244,113V96.415a1.369,1.369,0,0,1,1.367-1.367h26.445a1.369,1.369,0,0,1,1.367,1.367V113a1.369,1.369,0,0,1-1.367,1.367H153.611A1.369,1.369,0,0,1,152.244,113Z" transform="translate(-106.259 -63.822)"/></g></svg>