<svg xmlns="http://www.w3.org/2000/svg" width="102" height="91" viewBox="0 0 102 91"><g transform="translate(-783 -6275)"><g transform="translate(783 6275)" fill="#039be5" stroke="#1565c0" stroke-width="2"><rect width="102" height="91" rx="5" stroke="none"/><rect x="1" y="1" width="100" height="89" rx="4" fill="none"/></g><g transform="translate(806.444 6292.322)"><path d="M256.045,265.1l14.491,14.491a2.562,2.562,0,0,0,3.623,0l5.434-5.434a2.561,2.561,0,0,0,0-3.623L265.1,256.042a2.561,2.561,0,0,0-3.623,0l-2.717,2.717-1.812,1.812-.9.9A2.562,2.562,0,0,0,256.045,265.1Z" transform="translate(-229.6 -229.596)" fill="#00d7df"/><path d="M296.743,301.271l10.868,10.869c.751.751,1.764.953,2.264.453l1.359-1.359.907-.907.452-.452c.5-.5.3-1.514-.453-2.264l-10.868-10.869c-.751-.751-1.764-.953-2.264-.453l-2.717,2.717C295.791,299.507,295.993,300.52,296.743,301.271Z" transform="translate(-266.223 -266.22)" fill="#fff"/><path d="M32.136,23.079,17.644,8.587a2.562,2.562,0,0,0-3.623,0L8.587,14.022a2.561,2.561,0,0,0,0,3.623L23.079,32.136a2.561,2.561,0,0,0,3.623,0l2.717-2.717,1.812-1.812.9-.9A2.562,2.562,0,0,0,32.136,23.079Z" transform="translate(-7.05 -7.048)" fill="#00d7df"/><path d="M64.685,60.155,53.816,49.286c-.751-.751-1.764-.953-2.264-.453l-1.359,1.359-.907.907-.452.452c-.5.5-.3,1.514.453,2.264L60.156,64.683c.751.751,1.764.953,2.264.453l2.717-2.717C65.637,61.919,65.435,60.905,64.685,60.155Z" transform="translate(-43.674 -43.671)" fill="#fff"/><path d="M273.1,312.172l-1.334-1.334-1.115,1.116,1.334,1.334a1.775,1.775,0,0,1,0,2.507l-5.434,5.434a1.761,1.761,0,0,1-1.253.519h0a1.761,1.761,0,0,1-1.254-.519l-14.491-14.491a1.773,1.773,0,0,1,0-2.507l.9-.9-1.116-1.115-.9.9a3.351,3.351,0,0,0,0,4.738l14.491,14.491a3.328,3.328,0,0,0,2.369.981h0a3.329,3.329,0,0,0,2.369-.981l5.434-5.434A3.354,3.354,0,0,0,273.1,312.172Z" transform="translate(-222.552 -271.792)"/><rect width="1.921" height="1.578" transform="translate(46.469 38.533) rotate(-135)"/><path d="M2.113,7.531,7.547,2.1A1.762,1.762,0,0,1,8.8,1.577h0a1.762,1.762,0,0,1,1.254.519L24.546,16.588a1.773,1.773,0,0,1,0,2.507l-.9.9,1.116,1.115.9-.9a3.351,3.351,0,0,0,0-4.738L11.17.981A3.329,3.329,0,0,0,8.8,0h0A3.329,3.329,0,0,0,6.432.981L1,6.416a3.355,3.355,0,0,0,0,4.739l1.334,1.334,1.115-1.116L2.113,10.038A1.775,1.775,0,0,1,2.113,7.531Z" transform="translate(-0.018 0)"/><path d="M66.94,68.056l-.8.8c-.821.821-.622,2.305.453,3.38L77.461,83.105a3.265,3.265,0,0,0,1.629.911,2.358,2.358,0,0,0,.461.047,1.792,1.792,0,0,0,1.29-.505l2.717-2.717c.821-.821.622-2.305-.453-3.38L72.237,66.592l-1.115,1.116L81.99,78.576c.5.5.559,1.043.453,1.149l-2.717,2.717a.415.415,0,0,1-.326.027,1.7,1.7,0,0,1-.823-.48L67.709,71.121c-.5-.5-.559-1.043-.453-1.149l.8-.8L69.989,71.1,71.1,69.989l-4.2-4.2,2.16-2.16a1.772,1.772,0,0,1,2.507,0l8.584,8.584L81.274,71.1,72.69,62.517a3.35,3.35,0,0,0-4.738,0l-2.16,2.16L57.85,56.735l.8-.8c.821-.821.622-2.305-.453-3.38L47.33,41.685a3.265,3.265,0,0,0-1.629-.911,1.9,1.9,0,0,0-1.75.458l-2.717,2.717c-.821.821-.622,2.305.453,3.38L52.554,58.2l1.115-1.116L42.8,46.214c-.5-.5-.559-1.043-.453-1.149l2.717-2.717a.415.415,0,0,1,.326-.027,1.7,1.7,0,0,1,.823.48L57.083,53.669c.5.5.559,1.043.453,1.149l-.8.8L54.8,53.686,53.686,54.8l4.2,4.2-2.159,2.159a1.772,1.772,0,0,1-2.507,0l-8.584-8.584L43.518,53.69,52.1,62.273a3.35,3.35,0,0,0,4.738,0L59,60.115Z" transform="translate(-36.63 -36.628)"/><rect width="1.921" height="1.578" transform="translate(5.06 13.004) rotate(45)"/></g></g></svg>